<?xml version="1.0" encoding="UTF-8"?>
<svg width="118px" height="54px" viewBox="0 0 118 54" version="1.1" xmlns="http://www.w3.org/2000/svg" xmlns:xlink="http://www.w3.org/1999/xlink">
    <!-- Generator: Sketch 47.1 (45422) - http://www.bohemiancoding.com/sketch -->
    <title>header_LOGO</title>
    <desc>Created with Sketch.</desc>
    <defs></defs>
    <g id="Symbols" stroke="none" stroke-width="1" fill="none" fill-rule="evenodd">
        <g id="HEADER" transform="translate(-310.000000, -73.000000)">
            <g id="header">
                <g id="header_LOGO" transform="translate(310.000000, 73.000000)">
                    <path d="M33.6493973,9.04627907 L22.2874521,9.04627907 L8.03369863,23.4874419 L8.03369863,9.04790698 L0,9.04790698 L0,44.6746512 L8.03369863,44.6746512 L8.03369863,30.2351163 L22.2874521,44.6746512 L33.6510137,44.6746512 L16.0657808,26.8604651 L33.6477808,9.04627907 L33.6493973,9.04627907 Z M73.75,5.71151163 C69.0461644,1.97546512 63.3942877,0 57.4021507,0 C51.4083973,0 45.7557123,1.97465116 41.0551096,5.71151163 C39.371589,7.04965116 37.8489041,8.59290698 36.5274658,10.2981395 L36.0207123,10.9533721 L41.6111644,16.6168605 L42.2496575,15.7272093 C43.4134932,14.105814 44.814137,12.6862791 46.4152192,11.5076744 C49.6286986,9.13906977 53.428137,7.88883721 57.4029589,7.88883721 C61.3793973,7.88883721 65.1796438,9.14069767 68.3915068,11.5093023 C69.9901644,12.6846512 71.39,14.104186 72.5538356,15.7288372 C74.8928219,18.9846512 76.1277808,22.8346512 76.1277808,26.8604651 C76.1277808,30.887907 74.8928219,34.737093 72.5554521,37.9912791 C71.3916164,39.6167442 69.9901644,41.0354651 68.3915068,42.2116279 C65.1780274,44.5802326 61.3777808,45.832093 57.4021507,45.832093 C53.428137,45.832093 49.6270822,44.5810465 46.414411,42.2140698 C44.814137,41.0354651 43.4126849,39.6175581 42.2488493,37.9945349 L41.6103562,37.1032558 L36.0199041,42.7683721 L36.5266575,43.4227907 C37.8472877,45.1280233 39.371589,46.6704651 41.0543014,48.0086047 C45.7549041,51.7462791 51.407589,53.7209302 57.4013425,53.7209302 C63.3934795,53.7209302 69.0461644,51.747093 73.75,48.0102326 C75.4407945,46.6647674 76.9642877,45.1206977 78.2760274,43.4195349 C81.9647397,38.657907 83.9157808,32.9309302 83.9157808,26.8604651 C83.9157808,20.790814 81.9655479,15.0646512 78.2760274,10.2997674 C76.9642877,8.60023256 75.4407945,7.05697674 73.75,5.71151163 L73.75,5.71151163 Z M109.965493,9.04627907 L109.965493,22.7906977 L94.5592192,22.7906977 L94.5592192,9.04546512 L86.5255205,9.04546512 L86.5255205,44.6722093 L94.5592192,44.6722093 L94.5592192,30.9302326 L109.963877,30.9302326 L109.963877,44.6730233 L118,44.6730233 L118,9.04627907 L109.966301,9.04627907 L109.965493,9.04627907 Z" id="logo" fill="#FFFFFF"></path>
                    <polygon id="Path" fill="#1EC5E2" points="31.211 30.9302326 65.0171918 30.9302326 65.0171918 22.7906977 31.211 22.7906977"></polygon>
                </g>
            </g>
        </g>
    </g>
</svg>