<?xml version="1.0" encoding="UTF-8"?><svg id="_Слой_1" xmlns="http://www.w3.org/2000/svg" viewBox="0 0 150 84"><defs><style>.cls-1,.cls-2{fill:#b30931;}.cls-1,.cls-2,.cls-3,.cls-4{stroke-width:0px;}.cls-2{fill-rule:evenodd;}.cls-3{fill:#005092;}.cls-4{fill:#00528e;}</style></defs><path class="cls-4" d="M142.95,18.84c0-.62.16-1.22.47-1.77.32-.54.75-.96,1.3-1.29.54-.31,1.13-.47,1.76-.47.46,0,.92.09,1.34.27.43.17.8.43,1.15.75.31.33.58.7.75,1.13.2.43.28.88.28,1.36s-.09.95-.28,1.37c-.17.42-.43.79-.75,1.13-.35.32-.72.58-1.15.75-.43.16-.88.26-1.34.26-.62,0-1.21-.16-1.76-.47s-.98-.73-1.3-1.29c-.31-.54-.47-1.13-.47-1.78M143.47,18.84c0,.53.14,1.03.4,1.5.27.46.63.83,1.09,1.1.46.27.96.41,1.51.41s1.04-.14,1.48-.4c.46-.27.83-.62,1.1-1.09.26-.46.4-.96.4-1.51s-.14-1.04-.4-1.51c-.27-.46-.64-.82-1.1-1.08-.46-.27-.95-.4-1.48-.4s-1.04.14-1.51.41c-.46.26-.83.63-1.09,1.09-.26.46-.4.95-.4,1.48M145.16,20.91v-4.13h1.57c.16,0,.31.02.49.07.17.05.35.16.48.33.14.17.21.4.21.69,0,.24-.05.43-.17.58-.1.16-.24.3-.41.38-.16.09-.33.12-.49.12h-.09l1.31,1.92h-.78l-1.26-1.9h-.19v1.9h-.68v.02ZM145.83,17.31v1.15h.57c.32,0,.54-.06.64-.15.1-.12.16-.25.16-.43s-.04-.33-.15-.43c-.1-.1-.27-.14-.56-.14h-.67Z"/><path class="cls-3" d="M139.1,22.8h-20.3c-.3,0-.9,0-1.2.1-.3,0-.9.1-1.2.1s-.9.1-1.2.2c-.3.1-.8.2-1.1.3-.3.1-.8.2-1.1.3-.3.1-.8.2-1.1.3-.3.1-.8.3-1.1.4-.3.1-.7.3-1,.4s-.7.3-1,.5c-.3.1-.7.4-1,.5s-.7.4-1,.6-.7.5-.9.6c-.2.2-.6.5-.9.7s-.7.5-.9.7c-.2.2-.6.5-.8.8-.2.2-.5.6-.7.8-.2.2-.5.6-.8.8-.2.2-.5.6-.7.9-.2.2-.5.6-.7.9s-.4.7-.6,1c-.1.3-.4.7-.6,1s-.4.7-.5,1-.3.7-.5,1c-.1.3-.4.8-.5,1.1s-.3.8-.4,1.1-.2.8-.3,1.1-.2.8-.3,1c-.1.3-.4-.4-.7-1.5l-4-14.1c-.3-1.1-1.2-2-1.9-2h-10c-.8,0-1.7.9-2,2l-7.3,25.6c-.3,1.1-.6,1.1-.6-.1v-25.6c0-1.1-.9-2.1-2.1-2.1h-11.2c-1.2,0-2.1.5-2.1,1,0,.6,0,.9-.1.8s-.3-.5-.4-.9c-.2-.4-.5-1-.7-1.3-.2-.4-.5-.9-.8-1.3-.2-.3-.5-.9-.8-1.2-.2-.3-.6-.9-.8-1.2-.2-.3-.6-.9-.9-1.2-.3-.3-.7-.8-1-1.1-.3-.3-.7-.8-1-1-.3-.3-.8-.7-1-1-.3-.3-.7-.7-1.1-1-.3-.2-.8-.6-1.1-.9-.3-.2-.8-.6-1.1-.9-.3-.2-.9-.6-1.2-.8-.4-.2-.9-.5-1.3-.7-.4-.2-.9-.5-1.3-.6-.4-.2-.9-.4-1.3-.6-.4-.1-1-.4-1.3-.5-.4-.1-1-.4-1.4-.5s-1-.3-1.4-.4-1-.2-1.4-.3c-.4-.1-1-.2-1.4-.3s-1.1-.1-1.5-.2c-.4,0-4.3-.1-4.4-.1s-1.1,0-2.3,0H2.4c-1.2,0-2.2,1.1-2.2,2.2v57.9c0,1.1.9,2.1,2.1,2.1h21.7c1.1,0,6.1,0,6.5-.1.4,0,1.1-.1,1.5-.2.4-.1,1.1-.2,1.4-.2.4-.1,1-.2,1.4-.3.4-.1,1-.3,1.4-.4s1-.3,1.4-.4,1-.4,1.3-.5c.4-.2.9-.4,1.3-.6.4-.1.9-.4,1.3-.6.3-.2.9-.5,1.3-.7.4-.2.9-.5,1.2-.8.3-.2.8-.6,1.1-.8s.8-.6,1.1-.9c.3-.3.8-.7,1.1-1l1-1c.3-.3.7-.8,1-1.1s.7-.8,1-1.1.7-.8.9-1.1.6-.8.8-1.2.5-.9.8-1.3c.2-.4.5-.9.8-1.3.2-.4.5-.9.7-1.3.2-.4.4-.8.4-.9.1-.1.1.7.1,1.9v14c0,1.2.9,2.1,2.1,2.1h21.8c1.2,0,2.2-1,2.4-2.2l3.7-20.4c.2-1.1.5-1.1.7,0l3.6,20.4c.2,1.1,1.3,2.1,2.5,2.1l11.1.1c1.2,0,1.8-.9,1.5-2l-.9-3.3c-.3-1.1-.5-1.9-.4-1.8l.6.6c.2.2.6.6.8.8.2.2.6.5.9.7s.7.5.9.6c.2.2.6.5.9.6.3.2.7.4,1,.6.3.1.7.4,1,.5s.8.4,1,.5c.3.1.7.3,1,.4s.8.3,1.1.4c.3.1.8.3,1.1.4.3.1.8.2,1.1.3.3.1.8.2,1.1.2.3.1.9.1,1.2.2.3,0,.9.1,1.2.1s.9.1,1.3.1h20c1.1,0,2.1-.9,2.1-2.1V24.9c0-1.2-.9-2.1-2.1-2.1ZM41.4,43.1c0,1.1-.9,1.9-1.9,1.9h-5.7c-1.1,0-1.9.9-1.9,1.9v5.7c0,1.1-.9,1.9-1.9,1.9h-9.5c-1.1,0-1.9-.9-1.9-1.9v-5.7c0-1.1-.9-1.9-1.9-1.9h-5.8c-1.1,0-1.9-.9-1.9-1.9v-9.6c0-1.1.9-1.9,1.9-1.9h5.8c1.1,0,1.9-.9,1.9-1.9v-5.7c0-1.1.9-1.9,1.9-1.9h9.5c1.1,0,1.9.9,1.9,1.9v5.7c0,1.1.9,1.9,1.9,1.9h5.7c1,0,1.9.9,1.9,1.9v9.6ZM127.3,54.7c0,1-.8,1.8-1.9,1.8h-4.8c-.1,0-.3-.1-.4-.1s-.3-.1-.3-.1h-.2c-.1,0-.3-.1-.4-.1-.1-.1-.3-.1-.4-.2-.1-.1-.3-.1-.4-.2-.1-.1-.3-.2-.4-.2-.1-.1-.3-.2-.4-.2s-.3-.1-.4-.2c-.1-.1-.3-.2-.4-.3s-.3-.2-.4-.3-.3-.2-.3-.3c-.1-.1-.2-.2-.3-.3-.1-.1-.3-.2-.3-.3-.1-.1-.2-.2-.3-.3-.1-.1-.2-.2-.3-.3-.1-.1-.2-.2-.3-.3-.1-.1-.2-.3-.2-.4-.1-.1-.2-.3-.2-.4-.1-.1-.2-.3-.2-.4-.1-.1-.2-.3-.2-.4-.1-.1-.2-.3-.2-.4s-.1-.3-.2-.4c0-.1-.1-.3-.1-.4s-.1-.3-.1-.4c-.1-.1-.1-.3-.1-.4s-.1-.3-.1-.4-.1-.3-.1-.5c0-.1-.1-.3-.1-.4v-.8c0-.1-.1-.3-.1-.5v-.5c0-.2,0-.4.1-.4v-.8c0-.1.1-.3.1-.4s.1-.3.1-.4.1-.3.1-.4.1-.3.1-.4c.1-.1.1-.3.1-.4s.1-.3.1-.4c.1-.1.1-.3.2-.4.1-.1.2-.3.2-.4.1-.1.2-.3.2-.4.1-.1.2-.3.2-.4.1-.1.2-.3.2-.3.1-.1.2-.2.2-.3.1-.1.2-.2.3-.3.1-.1.2-.3.3-.4.1-.1.2-.2.3-.3.1-.1.2-.2.3-.3.1-.1.3-.2.3-.3.1-.1.2-.2.3-.3.1-.1.3-.2.4-.3s.3-.2.4-.3.3-.2.4-.2.3-.1.4-.2c.1-.1.3-.1.4-.2.1-.1.3-.2.4-.2s.3-.1.4-.1c.1-.1.3-.1.4-.2.1,0,.2-.1.2-.1,0,0,.2,0,.3-.1.1,0,.3-.1.4-.1h4.8c1,0,1.9.8,1.9,1.7v16.6Z"/><path class="cls-1" d="M.4,73.6c0,.7.6,1.3,1.3,1.3h139.3c.7,0,1.3-.6,1.3-1.3s-.6-1.3-1.3-1.3H1.7c-.7,0-1.3.6-1.3,1.3,0,0,0-.7,0,0Z"/><path class="cls-3" d="M5.6,82.5h-1.8l-.9-3-.3,3H.5l.8-5.7h2.5l.9,3.2.9-3.3h2.5l.8,5.7h-2.2l-.3-3-.8,3.1Z"/><path class="cls-3" d="M11,82.5v-5.7h4v1.7h-1.7v.5h1.5v1.4h-1.5v.5h1.7v1.7l-4-.1h0Z"/><path class="cls-3" d="M17.9,76.8h5v4.1h.7v2.8h-2v-1.1h-3v1.1h-2v-2.8c.3,0,.6-.1.8-.3.2-.2.3-.4.3-.7s.1-.5.1-.8v-2.3s.1,0,.1,0ZM19.9,78.4v.8c0,.4,0,.8-.1,1s-.2.4-.4.6h1.2v-2.4h-.7Z"/><path class="cls-3" d="M25.6,76.8h2.2v2.9l1.6-2.9h2.1v5.7h-2.2v-2.8l-1.6,2.8h-2.1v-5.7Z"/><path class="cls-3" d="M36.9,82.5v-2c-.3,0-.5.1-.6.1h-.5c-.5,0-.9-.1-1.2-.2s-.5-.3-.6-.4c-.1-.2-.2-.4-.2-.6v-2.6h2.2v1.3c0,.2,0,.4.1.6,0,.2.2.2.3.3h.6v-2.1h2.3v5.7h-2.4s0-.1,0-.1Z"/><path class="cls-3" d="M41.6,82.5v-5.7h2.3v2h1.1v-2h2.3v5.7h-2.3v-2.1h-1.1v2.1h-2.3Z"/><path class="cls-3" d="M49.2,82.5l2-5.7h2.5l2,5.7h-2.4l-.2-.8h-1.4l-.2.8h-2.3ZM52.1,80.2h.8l-.4-1.5-.4,1.5Z"/><path class="cls-3" d="M62.5,76.8h5.3v5.7h-2.3v-4.1h-.9v2.1c0,.3,0,.5-.1.7,0,.2-.1.4-.3.6-.1.2-.4.4-.7.5s-.8.2-1.3.2c-.3,0-.5,0-.9-.1v-1.6c.1,0,.2.1.4.1s.4-.1.5-.2.2-.3.2-.4v-3.5s.1,0,.1,0Z"/><path class="cls-3" d="M69.7,82.5l2-5.7h2.5l2,5.7h-2.4l-.2-.8h-1.4l-.2.8h-2.3ZM72.6,80.2h.8l-.4-1.4-.4,1.4Z"/><path class="cls-3" d="M78.1,82.5v-5.7h4.8v1.7h-2.5v.5h.8c.6,0,1.1.1,1.5.3.5.2.7.7.7,1.4,0,.3-.1.6-.2.8-.1.3-.3.5-.7.7-.3.2-.8.3-1.4.3,0,0-3,0-3,0ZM80.4,81.1h.2c.4,0,.6-.1.6-.4s-.2-.4-.6-.4h-.2v.8Z"/><path class="cls-3" d="M88.7,82.7c-.5,0-1-.1-1.4-.2s-.8-.4-1.1-.6c-.3-.3-.5-.6-.7-1s-.2-.8-.2-1.2.1-.8.2-1.2c.2-.4.4-.7.7-1,.3-.3.6-.5,1.1-.6.4-.1.9-.2,1.4-.2s1,.1,1.4.2c.4.2.8.4,1.1.6.3.3.5.6.7,1s.2.8.2,1.2-.1.8-.2,1.2c-.2.4-.4.7-.7,1-.3.3-.6.5-1.1.6s-.9.2-1.4.2ZM88.7,80.9c.3,0,.6-.1.8-.3s.3-.5.3-.9-.1-.7-.3-.9-.5-.3-.8-.3c-.2,0-.4.1-.6.2s-.3.2-.4.4c-.1.2-.1.4-.1.6s.1.4.1.6c.1.2.2.3.4.4.1.1.3.2.6.2Z"/><path class="cls-3" d="M94.2,82.5v-5.7h3c.5,0,1,.1,1.3.3.3.2.6.4.7.7.2.3.2.6.2,1s-.1.7-.2,1c-.2.3-.4.5-.7.7-.3.2-.8.3-1.3.3h-.7v1.8h-2.3v-.1ZM96.4,78.3v1h.3c.4,0,.5-.2.5-.5s-.2-.5-.5-.5h-.3Z"/><path class="cls-3" d="M101,82.5l2-5.7h2.5l2,5.7h-2.3l-.2-.8h-1.4l-.2.8h-2.4ZM103.9,80.2h.8l-.4-1.5-.4,1.5Z"/><path class="cls-3" d="M110.2,82.5v-4.1h-1.2v-1.7h4.7v1.7h-1.2v4.1h-2.3Z"/><path class="cls-3" d="M118.7,82.7c-.5,0-1-.1-1.4-.2s-.8-.4-1.1-.6c-.3-.3-.5-.6-.7-1s-.2-.8-.2-1.2.1-.8.2-1.2c.2-.4.4-.7.7-1,.3-.3.6-.5,1.1-.6.4-.1.9-.2,1.4-.2s1,.1,1.4.2c.4.2.8.4,1.1.6.3.3.5.6.7,1s.2.8.2,1.2-.1.8-.2,1.2c-.2.4-.4.7-.7,1-.3.3-.6.5-1.1.6-.4.1-.9.2-1.4.2ZM118.7,80.9c.3,0,.6-.1.8-.3s.3-.5.3-.9-.1-.7-.3-.9-.5-.3-.8-.3c-.2,0-.4.1-.6.2s-.3.2-.4.4c-.1.2-.1.4-.1.6s0,.4.1.6.2.3.4.4c.2.1.4.2.6.2Z"/><path class="cls-3" d="M124.2,82.5v-5.7h3c.5,0,1,.1,1.3.3.3.2.6.4.7.7.1.3.2.6.2,1s-.1.7-.2,1c-.2.3-.4.5-.7.7s-.8.3-1.3.3h-.7v1.8h-2.3v-.1ZM126.5,78.3v1h.3c.4,0,.5-.2.5-.5s-.2-.5-.5-.5h-.3Z"/><path class="cls-3" d="M131.6,82.5v-5.7h2.3v5.7h-2.3Z"/><path class="cls-3" d="M136,82.5l1.3-2.1-.6-.3c-.2-.1-.3-.3-.4-.5-.1-.2-.2-.5-.2-.8,0-.6.2-1,.6-1.4.4-.4,1-.6,1.9-.6h2.9v5.7h-2.3v-1.6l-.7,1.6s-2.5,0-2.5,0ZM139.2,79.4v-1.1h-.2c-.4,0-.7.2-.7.5,0,.4.2.5.7.5l.2.1h0Z"/><path class="cls-2" d="M71.7,10.9c0,5.6-4.6,10.2-10.2,10.2s-10.2-4.6-10.2-10.2S55.9.7,61.5.7s10.2,4.6,10.2,10.2Z"/></svg>