<svg width="145" height="31" viewBox="0 0 340 69" fill="none" xmlns="http://www.w3.org/2000/svg">
    <path d="M93.2911 55.8599C94.0108 53.8123 94.6867 51.6031 95.3233 49.2325L95.4049 48.9287H95.0904H92.7466H92.5535L92.5112 49.1172C92.3493 49.8403 92.1556 50.6255 91.9274 51.4729L91.9273 51.4732C91.7004 52.321 91.4578 53.1686 91.1979 54.016L91.1979 54.016C90.938 54.8637 90.6711 55.6801 90.3956 56.4654L90.3956 56.4654L90.3942 56.4695C90.216 57.0085 90.0423 57.4991 89.8725 57.9416C89.67 57.3946 89.4674 56.8266 89.2648 56.2376C89.0049 55.4206 88.7535 54.6036 88.5108 53.7866C88.2666 52.9538 88.0396 52.1441 87.8284 51.3576C87.6175 50.5572 87.4399 49.8114 87.2939 49.1201L87.2535 48.9287H87.0579H85.1794H84.9881L84.9446 49.115C84.7828 49.8065 84.5878 50.5527 84.361 51.3539L84.361 51.3538L84.3602 51.357C84.1489 52.1437 83.9219 52.9536 83.6775 53.7866C83.435 54.603 83.1752 55.4195 82.8996 56.2362L82.8995 56.2362L82.8987 56.239C82.7076 56.828 82.5128 57.3958 82.3137 57.9425C82.1397 57.4983 81.9578 57.006 81.7682 56.4654C81.493 55.6808 81.2263 54.8651 80.9666 54.0182C80.7237 53.1698 80.4881 52.3215 80.261 51.4732C80.0341 50.6253 79.839 49.84 79.6771 49.1172L79.6349 48.9287H79.4417H77H76.6855L76.767 49.2325C77.4037 51.6032 78.0811 53.8123 78.7992 55.8597L78.7993 55.8598C79.5173 57.9067 80.2521 59.7313 81.0054 61.3328L81.0706 61.4714H81.2237H83.2016H83.3635L83.4248 61.3215C83.8818 60.204 84.3628 58.9324 84.8694 57.5073L84.8697 57.5064C85.2849 56.3222 85.6728 55.1017 86.0334 53.8449C86.3932 55.1017 86.7813 56.3223 87.1977 57.5066L87.1977 57.5066L87.1987 57.5094C87.7196 58.9341 88.209 60.2049 88.6656 61.3215L88.7269 61.4714H88.8888H90.8667H91.0198L91.085 61.3328C91.8382 59.7314 92.5731 57.9068 93.2911 55.8599ZM93.2911 55.8599L93.0638 55.78L93.2911 55.8598C93.2911 55.8598 93.2911 55.8598 93.2911 55.8599Z" fill="#5A9C13" stroke="#5A9C13" stroke-width="0.48241"/>
    <path d="M110.375 61.3217L110.437 61.4714H110.599H112.575H112.728L112.793 61.3328C113.547 59.7314 114.283 57.9068 115.001 55.8598L114.773 55.7799L115.001 55.8597C115.719 53.8123 116.397 51.6032 117.032 49.2323L117.113 48.9287H116.799H114.455H114.262L114.22 49.1172C114.058 49.8403 113.864 50.6256 113.637 51.4732C113.409 52.3211 113.166 53.1687 112.906 54.016L112.906 54.016C112.646 54.8637 112.379 55.6801 112.104 56.4654L112.104 56.4654L112.103 56.4695C111.925 57.008 111.751 57.4983 111.582 57.9406C111.379 57.3938 111.176 56.8262 110.973 56.2377C110.715 55.4204 110.462 54.6035 110.219 53.7869C109.976 52.9535 109.748 52.1438 109.538 51.3577C109.327 50.5569 109.148 49.8113 109.004 49.1206L108.964 48.9287H108.768H106.888H106.697L106.653 49.115C106.491 49.8065 106.296 50.5527 106.069 51.3539L106.069 51.3538L106.069 51.357C105.857 52.1436 105.63 52.9535 105.387 53.7867C105.143 54.6031 104.884 55.4197 104.608 56.2362L104.608 56.2362L104.607 56.239C104.416 56.8278 104.221 57.3955 104.022 57.9421C103.849 57.4981 103.668 57.0059 103.478 56.4654C103.203 55.6806 102.935 54.8648 102.675 54.0182C102.432 53.1698 102.196 52.3215 101.969 51.4732C101.742 50.6253 101.547 49.84 101.385 49.1172L101.343 48.9287H101.15H98.7084H98.3938L98.4754 49.2325C99.1121 51.6032 99.7894 53.8123 100.508 55.8597L100.508 55.8598C101.226 57.9068 101.962 59.7313 102.714 61.3327L102.779 61.4714H102.932H104.91H105.072L105.133 61.3215C105.59 60.2041 106.073 58.9325 106.578 57.5071L106.578 57.5064C106.993 56.3218 107.381 55.101 107.742 53.8438C108.103 55.101 108.491 56.3218 108.906 57.5064L108.906 57.5064L108.907 57.5094C109.428 58.9341 109.917 60.205 110.375 61.3217Z" fill="#5A9C13" stroke="#5A9C13" stroke-width="0.48241"/>
    <path d="M132.083 61.3215L132.145 61.4714H132.307H134.285H134.438L134.503 61.3327C135.255 59.7314 135.991 57.9068 136.709 55.8598L136.482 55.7799L136.709 55.8598C137.428 53.8123 138.105 51.6032 138.74 49.2324L138.822 48.9287H138.507H136.165H135.972L135.929 49.1172C135.767 49.84 135.572 50.6253 135.345 51.4732C135.119 52.3207 134.874 53.1684 134.614 54.016L134.614 54.0164C134.356 54.8636 134.088 55.6799 133.812 56.4654L133.812 56.4654L133.811 56.4695C133.633 57.0078 133.459 57.4981 133.29 57.9403C133.088 57.3937 132.885 56.8261 132.683 56.2376C132.423 55.4207 132.171 54.6038 131.927 53.7867C131.684 52.9537 131.457 52.1439 131.246 51.3574C131.035 50.557 130.858 49.8113 130.712 49.1201L130.671 48.9287H130.476H128.596H128.404L128.361 49.115C128.199 49.8065 128.004 50.5527 127.777 51.3538L127.777 51.3538L127.776 51.357C127.565 52.1436 127.338 52.9535 127.095 53.7866C126.851 54.6034 126.592 55.4198 126.316 56.2359L126.316 56.2359L126.314 56.2393C126.125 56.8277 125.93 57.3951 125.73 57.9416C125.557 57.4975 125.375 57.0055 125.185 56.4654C124.91 55.6805 124.642 54.8647 124.384 54.0182C124.139 53.1699 123.904 52.3216 123.677 51.4732C123.45 50.6253 123.255 49.84 123.093 49.1172L123.05 48.9287H122.857H120.417H120.103L120.184 49.2324C120.819 51.6032 121.497 53.8123 122.215 55.8598L122.215 55.8598C122.933 57.9068 123.669 59.7314 124.423 61.3328L124.488 61.4714H124.641H126.617H126.779L126.841 61.3217C127.299 60.2041 127.78 58.9323 128.285 57.5071L128.286 57.5064C128.701 56.3218 129.089 55.1009 129.45 53.8437C129.81 55.1009 130.198 56.3218 130.614 57.5064L130.614 57.5064L130.615 57.5096C131.137 58.9342 131.627 60.205 132.083 61.3215Z" fill="#5A9C13" stroke="#5A9C13" stroke-width="0.48241"/>
    <path d="M143.935 62.6774C144.55 62.6774 145.06 62.4766 145.437 62.0576C145.802 61.6528 145.985 61.1721 145.985 60.6272C145.985 60.0824 145.802 59.6017 145.437 59.197C145.061 58.778 144.55 58.5769 143.935 58.5769C143.321 58.5769 142.81 58.7779 142.434 59.1968C142.069 59.6011 141.884 60.0817 141.884 60.6272C141.884 61.1726 142.069 61.653 142.433 62.0574C142.81 62.4765 143.321 62.6774 143.935 62.6774Z" fill="#5A9C13" stroke="#5A9C13" stroke-width="0.48241"/>
    <path d="M154.185 56.4043V51.2078H158.543H158.784V50.9666V49.1995V48.9583H158.543H154.185V45.5518V45.2669L153.904 45.3138L151.734 45.6764L151.532 45.7101V45.9143V56.427C151.532 57.2245 151.595 57.9363 151.725 58.5603L151.725 58.5604L151.726 58.5673C151.874 59.1853 152.12 59.7176 152.472 60.1574L152.473 60.1578C152.828 60.6007 153.29 60.9341 153.855 61.1596L153.855 61.1597L153.862 61.1625C154.443 61.3714 155.157 61.4713 155.999 61.4713C156.716 61.4713 157.362 61.3864 157.933 61.2125C158.477 61.0618 158.876 60.9287 159.115 60.8127L159.29 60.7279L159.244 60.5393L158.824 58.7947L158.76 58.5265L158.502 58.6264C158.349 58.686 158.07 58.7909 157.668 58.9416C157.314 59.0644 156.824 59.1311 156.185 59.1311C155.83 59.1311 155.53 59.088 155.28 59.0069L155.28 59.0068C155.04 58.9294 154.845 58.8029 154.688 58.6267C154.533 58.4356 154.406 58.1706 154.319 57.82C154.231 57.4519 154.185 56.9818 154.185 56.4043Z" fill="#5A9C13" stroke="#5A9C13" stroke-width="0.48241"/>
    <path d="M171.306 49.5607L171.352 49.3452L171.141 49.2801C171.026 49.2445 170.86 49.2126 170.65 49.1824C170.45 49.1362 170.226 49.098 169.983 49.0676C169.732 49.0215 169.475 48.9906 169.209 48.975C168.961 48.9444 168.733 48.9287 168.528 48.9287C167.521 48.9287 166.609 49.0129 165.791 49.1832C164.987 49.3358 164.308 49.5046 163.757 49.6908L163.593 49.7462V49.9194V61.2302V61.4714H163.834H166.108H166.349V61.2302V51.4999C166.493 51.4707 166.696 51.4317 166.958 51.3829L166.958 51.383L166.964 51.3817C167.372 51.2944 167.78 51.2508 168.185 51.2508C168.828 51.2508 169.338 51.2958 169.722 51.3813L169.722 51.3815L169.732 51.3832C170.156 51.4588 170.442 51.5245 170.602 51.5788L170.859 51.6658L170.915 51.4004L171.306 49.5607Z" fill="#5A9C13" stroke="#5A9C13" stroke-width="0.48241"/>
    <path d="M178.044 61.4715H178.285V61.2303V49.3012V49.06H178.044H176.175H175.934V49.3012V61.2303V61.4715H176.175H178.044ZM176.054 46.9366L176.054 46.9368L176.064 46.9468C176.349 47.2365 176.698 47.386 177.1 47.386C177.502 47.386 177.847 47.2358 178.12 46.942C178.412 46.6285 178.547 46.2213 178.547 45.7454C178.547 45.2727 178.413 44.8714 178.12 44.5716C177.849 44.2648 177.504 44.1047 177.1 44.1047C176.693 44.1047 176.342 44.2657 176.059 44.5719C175.779 44.8727 175.653 45.274 175.653 45.7454C175.653 46.2175 175.779 46.6228 176.054 46.9366Z" fill="#5A9C13" stroke="#5A9C13" stroke-width="0.48241"/>
    <path d="M184.284 49.5249L184.095 49.5665V49.7604V61.2302V61.4714H184.336H186.739H186.981V61.2302V51.4634C187.041 51.4535 187.111 51.4423 187.189 51.4297C187.389 51.4006 187.604 51.3786 187.84 51.3639L187.84 51.3642L187.853 51.3627C188.106 51.333 188.368 51.3108 188.639 51.2959C188.911 51.281 189.173 51.2735 189.426 51.2735C190.047 51.2735 190.553 51.3474 190.949 51.4869L190.949 51.4871L190.956 51.4894C191.347 51.6129 191.649 51.8149 191.876 52.0929C192.103 52.3735 192.271 52.7509 192.369 53.2376L192.369 53.2376L192.371 53.245C192.486 53.7363 192.544 54.3375 192.544 55.0524V61.2302V61.4714H192.786H195.19H195.432V61.2302V54.5982C195.432 53.7784 195.343 53.0233 195.165 52.3346C194.984 51.6346 194.665 51.0318 194.208 50.5318C193.764 50.0125 193.168 49.6214 192.431 49.3528C191.689 49.0667 190.77 48.9287 189.686 48.9287C188.487 48.9287 187.424 48.9973 186.496 49.1357C185.581 49.2724 184.843 49.402 184.284 49.5249Z" fill="#5A9C13" stroke="#5A9C13" stroke-width="0.48241"/>
    <path d="M203.371 61.4715H203.612V61.2303V49.3012V49.06H203.371H201.502H201.261V49.3012V61.2303V61.4715H201.502H203.371ZM201.381 46.9366L201.386 46.9421L201.391 46.9472C201.676 47.2363 202.024 47.386 202.427 47.386C202.828 47.386 203.174 47.236 203.448 46.942L203.448 46.9415C203.738 46.6282 203.874 46.2212 203.874 45.7454C203.874 45.2726 203.74 44.8715 203.448 44.5718C203.177 44.2646 202.831 44.1047 202.427 44.1047C202.02 44.1047 201.67 44.266 201.386 44.5716C201.106 44.8725 200.979 45.2739 200.979 45.7454C200.979 46.2175 201.106 46.6228 201.381 46.9366Z" fill="#5A9C13" stroke="#5A9C13" stroke-width="0.48241"/>
    <path d="M212.075 56.4043V51.2078H216.432H216.673V50.9666V49.1995V48.9583H216.432H212.075V45.5518V45.2669L211.794 45.3138L209.623 45.6764L209.422 45.7101V45.9143V56.427C209.422 57.2245 209.485 57.9363 209.614 58.5603L209.614 58.5604L209.616 58.5673C209.763 59.1853 210.009 59.7176 210.361 60.1574L210.362 60.1578C210.718 60.6007 211.18 60.9341 211.744 61.1596L211.744 61.1597L211.752 61.1625C212.332 61.3714 213.046 61.4713 213.888 61.4713C214.605 61.4713 215.251 61.3864 215.822 61.2125C216.366 61.0618 216.766 60.9287 217.004 60.8127L217.179 60.7279L217.133 60.5393L216.713 58.7947L216.649 58.5265L216.392 58.6264C216.238 58.686 215.959 58.7909 215.557 58.9416C215.203 59.0644 214.714 59.1311 214.074 59.1311C213.72 59.1311 213.42 59.088 213.168 59.0069C212.929 58.9294 212.734 58.8028 212.577 58.6264C212.421 58.436 212.296 58.1715 212.208 57.82C212.121 57.452 212.075 56.9818 212.075 56.4043Z" fill="#5A9C13" stroke="#5A9C13" stroke-width="0.48241"/>
    <path d="M224.478 66.0474C225.062 65.8805 225.585 65.6211 226.049 65.2683L226.049 65.2681C226.509 64.9172 226.922 64.469 227.288 63.9272C227.669 63.4041 228.029 62.7793 228.371 62.0552L228.371 62.0553L228.372 62.0529C229.235 60.1691 230.039 58.1506 230.782 55.9976L230.783 55.9971C231.526 53.8288 232.202 51.5733 232.811 49.2306L232.889 48.9287H232.577H230.15H229.961L229.916 49.1128C229.494 50.8428 229.049 52.5246 228.577 54.1587L228.577 54.1589C228.157 55.6195 227.668 57.0932 227.112 58.5801C226.798 57.9282 226.493 57.2562 226.199 56.5638C225.831 55.6931 225.486 54.8225 225.169 53.9522L225.168 53.9519C224.849 53.0807 224.555 52.2336 224.286 51.4105C224.035 50.5872 223.817 49.8203 223.633 49.1095L223.586 48.9287H223.399H220.871H220.554L220.638 49.2343C221.248 51.4386 222.01 53.6187 222.924 55.7745L222.924 55.7745L222.925 55.7767C223.838 57.8728 224.814 59.8622 225.857 61.7448C225.461 62.5396 225.029 63.093 224.571 63.4271L224.571 63.427L224.568 63.4298C224.102 63.7845 223.435 63.9768 222.54 63.9768C222.276 63.9768 222.001 63.9401 221.715 63.8653L221.715 63.8652L221.706 63.8632C221.428 63.8015 221.208 63.734 221.042 63.6625L220.779 63.5495L224.411 65.8158M224.478 66.0474C224.478 66.0475 224.477 66.0476 224.477 66.0477L224.411 65.8158M224.478 66.0474C224.478 66.0473 224.479 66.0472 224.479 66.0471L224.411 65.8158M224.478 66.0474C223.912 66.214 223.274 66.2955 222.565 66.2955C222.368 66.2955 222.165 66.2789 221.955 66.2463M224.411 65.8158C223.871 65.9748 223.256 66.0543 222.565 66.0543C222.379 66.0543 222.185 66.0384 221.984 66.0066M221.955 66.2463C221.958 66.2465 221.962 66.2468 221.965 66.247L221.984 66.0066M221.955 66.2463C221.952 66.2458 221.949 66.2453 221.946 66.2448L221.984 66.0066M221.955 66.2463L221.984 66.0066M232.577 49.1699C232.556 49.2504 232.535 49.3308 232.514 49.4111H232.577V49.1699ZM232.577 49.1699L232.344 49.1093C232.339 49.1295 232.333 49.1497 232.328 49.1699L232.577 49.1699ZM221.328 66.1477C221.331 66.1481 221.333 66.1485 221.336 66.1489L221.376 65.9112L221.321 66.146C221.324 66.1465 221.326 66.1471 221.328 66.1477Z" fill="#5A9C13" stroke="#5A9C13" stroke-width="0.48241"/>
    <path d="M244.638 52.5469H244.396V52.7881V55.2001V55.4413H244.638H249.462H249.703V55.2001V52.7881V52.5469H249.462H244.638Z" fill="#5A9C13" stroke="#5A9C13" stroke-width="0.48241"/>
    <path d="M266.346 56.4043V51.2078H270.703H270.944V50.9666V49.1995V48.9583H270.703H266.346V45.5518V45.2669L266.065 45.3138L263.894 45.6764L263.693 45.7101V45.9143V56.427C263.693 57.2245 263.756 57.9361 263.884 58.5598L263.884 58.5599L263.885 58.5673C264.033 59.1852 264.279 59.7177 264.633 60.1576C264.988 60.6009 265.452 60.9342 266.015 61.1596L266.015 61.1597L266.023 61.1625C266.602 61.3714 267.317 61.4713 268.159 61.4713C268.876 61.4713 269.522 61.3864 270.094 61.2125C270.637 61.0618 271.037 60.9287 271.276 60.8127L271.45 60.7279L271.405 60.5392L270.984 58.7947L270.92 58.5265L270.663 58.6263C270.509 58.686 270.231 58.791 269.828 58.9416C269.476 59.0644 268.985 59.1311 268.346 59.1311C267.992 59.1311 267.69 59.088 267.44 59.0069C267.201 58.9294 267.005 58.8026 266.848 58.6267C266.692 58.4357 266.566 58.1708 266.479 57.8204C266.392 57.4519 266.346 56.9815 266.346 56.4043Z" fill="#5A9C13" stroke="#5A9C13" stroke-width="0.48241"/>
    <path d="M285.876 49.232L285.956 48.9287H285.643H283.426H283.236L283.191 49.1126C283.007 49.8655 282.785 50.673 282.524 51.5354L282.524 51.5354L282.524 51.5379C282.278 52.3847 282.011 53.2313 281.719 54.0778L281.719 54.0778L281.718 54.0805C281.443 54.9129 281.159 55.7219 280.867 56.5076C280.657 57.0734 280.455 57.5947 280.262 58.0715C280.068 57.5947 279.867 57.0734 279.657 56.5076C279.365 55.7215 279.074 54.9121 278.782 54.0791C278.506 53.2315 278.237 52.384 277.976 51.5366C277.731 50.6743 277.517 49.8663 277.332 49.1126L277.287 48.9287H277.098H274.788H274.475L274.555 49.232C275.158 51.4974 275.861 53.6704 276.666 55.7509L276.666 55.7509L276.666 55.7521C277.482 57.8276 278.27 59.6872 279.026 61.3309L279.091 61.4714H279.245H281.186H281.34L281.405 61.3309C282.161 59.6868 282.941 57.8269 283.742 55.7514C284.561 53.6708 285.273 51.4976 285.876 49.232Z" fill="#5A9C13" stroke="#5A9C13" stroke-width="0.48241"/>
    <path d="M289.567 62.0574L289.567 62.0579C289.945 62.4764 290.456 62.6774 291.07 62.6774C291.685 62.6774 292.196 62.4766 292.572 62.0576C292.937 61.6528 293.12 61.1721 293.12 60.6272C293.12 60.0823 292.937 59.6017 292.572 59.197C292.196 58.778 291.685 58.5769 291.07 58.5769C290.456 58.5769 289.945 58.7781 289.567 59.1966L289.567 59.197C289.204 59.6012 289.019 60.0816 289.019 60.6272C289.019 61.1727 289.204 61.6531 289.567 62.0574Z" fill="#5A9C13" stroke="#5A9C13" stroke-width="0.48241"/>
    <path d="M298.851 49.5263L298.667 49.5717V49.7604V61.2302V61.4714H298.909H301.045H301.286V61.2302V51.4593C301.335 51.4503 301.391 51.4401 301.453 51.4289C301.629 51.4002 301.82 51.3784 302.027 51.3637L302.034 51.3632L302.042 51.3623C302.265 51.3328 302.496 51.3106 302.736 51.2958C302.977 51.2809 303.209 51.2735 303.433 51.2735C303.982 51.2735 304.424 51.3468 304.769 51.4837L304.769 51.4838L304.777 51.4867C305.116 51.6073 305.382 51.8052 305.581 52.0818L305.582 52.0823C305.785 52.3626 305.934 52.7415 306.022 53.2325L306.022 53.2325L306.023 53.2391C306.126 53.7331 306.179 54.3365 306.179 55.0524V61.2302V61.4714H306.421H308.557H308.798V61.2302V54.5982C308.798 53.7804 308.719 53.0275 308.562 52.341C308.402 51.6452 308.121 51.0434 307.712 50.5424C307.317 50.022 306.784 49.6277 306.124 49.3564C305.456 49.0673 304.633 48.9287 303.664 48.9287C302.597 48.9287 301.649 48.9974 300.821 49.1364L300.821 49.1364C300.007 49.2732 299.349 49.403 298.851 49.5263Z" fill="#5A9C13" stroke="#5A9C13" stroke-width="0.48241"/>
    <path d="M317.399 56.3495H324.978H325.194L325.218 56.1352C325.233 55.9988 325.241 55.8547 325.241 55.7028V55.7018V55.7009V55.7V55.699V55.6981V55.6972V55.6962V55.6953V55.6944V55.6935V55.6925V55.6916V55.6907V55.6898V55.6889V55.6879V55.687V55.6861V55.6852V55.6843V55.6833V55.6824V55.6815V55.6806V55.6797V55.6788V55.6779V55.6769V55.676V55.6751V55.6742V55.6733V55.6724V55.6715V55.6706V55.6697V55.6688V55.6679V55.667V55.6661V55.6652V55.6643V55.6634V55.6625V55.6616V55.6607V55.6598V55.6589V55.658V55.6571V55.6562V55.6553V55.6544V55.6535V55.6526V55.6517V55.6508V55.6499V55.649V55.6481V55.6473V55.6464V55.6455V55.6446V55.6437V55.6428V55.6419V55.6411V55.6402V55.6393V55.6384V55.6375V55.6367V55.6358V55.6349V55.634V55.6332V55.6323V55.6314V55.6305V55.6297V55.6288V55.6279V55.627V55.6262V55.6253V55.6244V55.6236V55.6227V55.6218V55.621V55.6201V55.6192V55.6184V55.6175V55.6166V55.6158V55.6149V55.6141V55.6132V55.6123V55.6115V55.6106V55.6098V55.6089V55.6081V55.6072V55.6063V55.6055V55.6046V55.6038V55.6029V55.6021V55.6012V55.6004V55.5995V55.5987V55.5979V55.597V55.5962V55.5953V55.5945V55.5936V55.5928V55.5919V55.5911V55.5903V55.5894V55.5886V55.5878V55.5869V55.5861V55.5852V55.5844V55.5836V55.5827V55.5819V55.5811V55.5802V55.5794V55.5786V55.5778V55.5769V55.5761V55.5753V55.5745V55.5736V55.5728V55.572V55.5712V55.5703V55.5695V55.5687V55.5679V55.567V55.5662V55.5654V55.5646V55.5638V55.563V55.5621V55.5613V55.5605V55.5597V55.5589V55.5581V55.5573V55.5565V55.5557V55.5548V55.554V55.5532V55.5524V55.5516V55.5508V55.55V55.5492V55.5484V55.5476V55.5468V55.546V55.5452V55.5444V55.5436V55.5428V55.542V55.5412V55.5404V55.5396V55.5388V55.538V55.5372V55.5365V55.5357V55.5349V55.5341V55.5333V55.5325V55.5317V55.5309V55.5301V55.5294V55.5286V55.5278V55.527V55.5262V55.5254V55.5247V55.5239V55.5231V55.5223V55.5215V55.5208V55.52V55.5192V55.5184V55.5177V55.5169V55.5161V55.5153V55.5146V55.5138V55.513V55.5123V55.5115V55.5107V55.51V55.5092V55.5084V55.5077V55.5069V55.5061V55.5054V55.5046V55.5039V55.5031V55.5023V55.5016V55.5008V55.5001V55.4993V55.4985V55.4978V55.497V55.4963V55.4955V55.4948V55.494V55.4933V55.4925V55.4918V55.491V55.4903V55.4895V55.4888V55.488V55.4873V55.4865V55.4858V55.4851V55.4843V55.4836V55.4828V55.4821V55.4814V55.4806V55.4799V55.4791V55.4784V55.4777V55.4769V55.4762V55.4755V55.4747V55.474V55.4733V55.4725V55.4718V55.4711V55.4704V55.4696V55.4689V55.4682V55.4674V55.4667V55.466V55.4653V55.4646V55.4638V55.4631V55.4624V55.4617V55.461V55.4602V55.4595V55.4588V55.4581V55.4574V55.4567V55.4559V55.4552V55.4545V55.4538V55.4531V55.4524V55.4517V55.451V55.4503V55.4495V55.4488V55.4481V55.4474V55.4467V55.446V55.4453V55.4446V55.4439V55.4432V55.4425V55.4418V55.4411V55.4404V55.4397V55.439V55.4383V55.4376V55.4369V55.4362V55.4356V55.4349V55.4342V55.4335V55.4328V55.4321V55.4314V55.4307V55.43V55.4294V55.4287V55.428V55.4273V55.4266V55.4259V55.4253V55.4246V55.4239V55.4232V55.4225V55.4219V55.4212V55.4205V55.4198V55.4191V55.4185V55.4178V55.4171V55.4165V55.4158V55.4151V55.4144V55.4138V55.4131V55.4124V55.4118V55.4111V55.4104V55.4098V55.4091V55.4084V55.4078V55.4071V55.4065V55.4058V55.4051V55.4045V55.4038V55.4032V55.4025V55.4018V55.4012V55.4005V55.3999V55.3992V55.3986V55.3979V55.3973V55.3966V55.396V55.3953V55.3947V55.394V55.3934V55.3927V55.3921V55.3914V55.3908V55.3902V55.3895V55.3889V55.3882V55.3876V55.387V55.3863V55.3857V55.385V55.3844V55.3838V55.3831V55.3825V55.3819V55.3812V55.3806V55.38V55.3793V55.3787V55.3781V55.3774V55.3768V55.3762V55.3756V55.3749V55.3743V55.3737V55.3731V55.3724V55.3718V55.3712V55.3706V55.37V55.3693V55.3687V55.3681V55.3675V55.3669V55.3663V55.3656V55.365V55.3644V55.3638V55.3632V55.3626V55.362V55.3614V55.3607V55.3601V55.3595V55.3589V55.3583V55.3577V55.3571V55.3565V55.3559V55.3553V55.3547V55.3541V55.3535V55.3529V55.3523V55.3517V55.3511V55.3505V55.3499V55.3493V55.3487V55.3481V55.3475V55.3469V55.3463V55.3458V55.3452V55.3446V55.344V55.3434V55.3428V55.3422V55.3416V55.3411V55.3405V55.3399V55.3393V55.3387V55.3381V55.3376V55.337V55.3364V55.3358V55.3352V55.3347V55.3341V55.3335V55.3329V55.3324V55.3318V55.3312V55.3307V55.3301V55.3295V55.3289V55.3284V55.3278V55.3272V55.3267V55.3261V55.3255V55.325V55.3244V55.3238V55.3233V55.3227V55.3222V55.3216V55.321C325.241 53.1673 324.828 51.5203 323.956 50.4248C323.08 49.3078 321.823 48.7588 320.22 48.7588C319.525 48.7588 318.847 48.9011 318.187 49.1837L317.399 56.3495ZM317.399 56.3495C317.511 57.4753 317.836 58.3098 318.35 58.8808C318.891 59.4796 319.753 59.8028 320.992 59.8028C321.697 59.8028 322.275 59.7403 322.733 59.6206C323.226 59.4791 323.582 59.3491 323.812 59.2326L324.109 59.0822L324.16 59.4111L324.446 61.2716L324.471 61.4351L324.327 61.5174C324.046 61.6785 323.578 61.8358 322.945 61.9952C322.305 62.1602 321.579 62.2412 320.771 62.2412C319.747 62.2412 318.847 62.0782 318.075 61.7443L318.07 61.7418L318.07 61.7417C317.321 61.3936 316.695 60.9188 316.202 60.3162C315.709 59.7167 315.343 59.012 315.099 58.2055L315.098 58.2L315.098 58.2C314.871 57.3815 314.759 56.4928 314.759 55.5358C314.759 54.4181 314.908 53.4352 315.214 52.5919C315.516 51.7418 315.919 51.0293 316.428 50.461C316.935 49.8957 317.521 49.4686 318.187 49.1838L317.399 56.3495ZM321.963 52.0035L321.963 52.0035L321.967 52.0085C322.374 52.5427 322.597 53.2272 322.621 54.0781H317.454C317.501 53.7579 317.574 53.4427 317.673 53.1323C317.812 52.743 317.998 52.4018 318.23 52.1066C318.459 51.8142 318.734 51.5816 319.058 51.4067L319.058 51.4067L319.062 51.4045C319.388 51.2205 319.765 51.1256 320.198 51.1256C320.961 51.1256 321.54 51.4173 321.963 52.0035Z" fill="#5A9C13" stroke="#5A9C13" stroke-width="0.48241"/>
    <path d="M333.885 56.4043V51.2078H338.241H338.482V50.9666V49.1995V48.9583H338.241H333.885V45.5518V45.267L333.604 45.3138L331.432 45.6764L331.23 45.71V45.9143V56.427C331.23 57.2249 331.295 57.9364 331.422 58.5598L331.422 58.5599L331.424 58.5673C331.572 59.1853 331.818 59.7176 332.17 60.1574L332.17 60.1578C332.526 60.6007 332.988 60.9342 333.554 61.1596L333.554 61.1598L333.561 61.1624C334.14 61.3714 334.855 61.4713 335.697 61.4713C336.414 61.4713 337.06 61.3864 337.632 61.2125C338.175 61.0618 338.574 60.9287 338.813 60.8127L338.988 60.7279L338.942 60.5393L338.522 58.7947L338.457 58.5265L338.2 58.6264C338.047 58.686 337.769 58.791 337.366 58.9415C337.012 59.0644 336.522 59.1311 335.883 59.1311C335.528 59.1311 335.228 59.088 334.978 59.0069L334.978 59.0068C334.738 58.9294 334.543 58.8029 334.386 58.6267C334.23 58.4356 334.104 58.1706 334.017 57.82C333.929 57.4523 333.885 56.9823 333.885 56.4043Z" fill="#5A9C13" stroke="#5A9C13" stroke-width="0.48241"/>
    <path d="M107.473 3V8.04035H94.8297V38.2821H89.7509V8.04035H77V3H107.473Z" fill="#5A9C13"/>
    <path d="M148.641 38.2821H142.589L135.89 28.2015C135.782 28.2015 135.674 28.2015 135.565 28.2015H128.002V38.2821H122.922V3H135.565C142.589 3 148.208 8.68382 148.208 15.5472C148.208 20.5875 145.29 24.7698 141.077 26.9147L148.641 38.2821ZM128.002 23.1613H135.565C139.78 23.1613 143.13 19.8368 143.13 15.6544C143.13 11.4721 139.78 8.14754 135.565 8.14754H128.002V23.1613Z" fill="#5A9C13"/>
    <path d="M171.01 38.2821H165.932V3H171.01V38.2821Z" fill="#5A9C13"/>
    <path d="M220.502 3V38.2821H220.178L195.108 14.4747V38.2821H190.03V3H190.245L215.424 26.8074V3H220.502Z" fill="#5A9C13"/>
    <path d="M244.707 38.2821H239.629V3H244.707V38.2821Z" fill="#5A9C13"/>
    <path d="M290.632 3V8.04035H277.99V38.2821H272.91V8.04035H260.268V3H290.632Z" fill="#5A9C13"/>
    <path d="M333.097 3L318.833 25.6278V38.2821H313.755V25.6278L299.491 3H305.435L316.241 20.1585L327.154 3H333.097Z" fill="#5A9C13"/>
    <path d="M34.4553 11.8131C34.3585 11.8131 34.2618 11.7171 34.165 11.7171C30.8745 10.3724 27.7776 9.12382 24.8742 11.7171C23.2289 13.3498 22.745 15.4629 22.9386 17.5759C22.9386 17.6719 22.9386 17.768 22.9386 17.864C23.0354 19.1126 23.4225 20.3612 23.8096 21.5138V21.6098C25.1645 22.5703 26.3259 23.6268 27.3904 24.7793C29.5196 27.0844 31.1648 29.6777 32.3262 31.8867C33.7779 34.672 34.4553 36.7851 34.4553 36.7851C34.4553 36.7851 35.1328 34.672 36.5845 31.8867C37.649 29.7737 39.2943 27.2765 41.3266 24.9714C42.3912 23.7228 43.6493 22.5703 45.101 21.6098C45.5849 20.4572 45.8753 19.1126 46.0688 17.864C46.0688 17.768 46.0688 17.6719 46.0688 17.4798C46.2624 15.3668 45.7785 13.2538 44.1332 11.621C41.2299 8.93173 38.0361 10.2764 34.8424 11.621C34.6489 11.7171 34.5521 11.8131 34.4553 11.8131Z" fill="#5A9C13"/>
    <path d="M34.7437 65.5033C34.6469 65.5033 34.5502 65.4073 34.5502 65.2152C33.9695 60.4129 34.8405 57.8196 35.7115 55.3224C36.389 53.4015 37.0664 51.4806 37.0664 48.6953C37.0664 43.5088 35.5179 39.1867 35.5179 38.9946C35.4212 38.6105 35.034 38.4184 34.7437 38.5144C34.3566 38.6105 34.163 38.9946 34.2598 39.2828C34.2598 39.2828 35.8083 43.7009 35.8083 48.6953C35.8083 51.2885 35.2276 53.0173 34.5502 54.8422C33.6791 57.4355 32.8081 60.0287 33.292 64.7349C33.292 65.1191 33.292 65.3112 33.0017 65.3112C16.2589 64.5429 3.00015 50.8083 3.00015 34.0003C3.00015 16.712 17.1299 2.68929 34.5502 2.68929C51.9704 2.68929 66.1002 16.712 66.1002 34.0003C66.0034 51.2885 52.0672 65.3112 34.7437 65.5033ZM34.4534 0C15.3879 0 0 15.2713 0 34.1923C0 53.1134 15.3879 68.3847 34.4534 68.3847C53.5189 68.3847 68.9067 53.1134 68.9067 34.1923C68.9067 15.2713 53.4221 0 34.4534 0Z" fill="#5A9C13"/>
    <path d="M14.2275 21.8986C15.776 21.1302 17.518 20.8421 19.1633 21.0342C21.1956 21.2263 23.0344 22.0907 24.5829 23.4353C31.3575 29.102 32.0349 33.0399 33.5834 37.362C27.1959 36.7857 15.5824 32.8478 15.5824 32.8478C15.5824 32.8478 25.3571 36.7857 33.4866 38.2264C32.8091 39.379 25.4539 46.4864 16.4535 46.4864C12.0016 46.4864 3.00118 40.4355 11.9048 31.5992L12.0984 31.3111L12.0016 30.9269C11.9048 30.3506 11.7113 29.7744 11.6145 29.1981C11.4209 28.0455 11.1306 23.3393 14.2275 21.8986Z" fill="#5A9C13"/>
    <path d="M54.5863 21.8986C53.0378 21.1302 51.2958 20.8421 49.6506 21.0342C47.6182 21.2263 45.7794 22.0907 44.2309 23.4353C37.4564 29.102 36.7789 33.0399 35.2305 37.362C41.6179 36.8818 53.2314 32.8478 53.2314 32.8478C53.2314 32.8478 43.4567 36.7857 35.3272 38.2264C36.0047 39.379 43.3599 46.4864 52.3604 46.4864C56.8122 46.4864 65.8127 40.4355 56.909 31.5992L56.7154 31.3111L56.8122 30.9269C56.909 30.3506 57.1025 29.7744 57.1993 29.1981C57.4897 28.0455 57.78 23.3393 54.5863 21.8986Z" fill="#5A9C13"/>
</svg>
