<svg id="图层_1" data-name="图层 1" xmlns="http://www.w3.org/2000/svg" xmlns:xlink="http://www.w3.org/1999/xlink" viewBox="0 0 171.21 164"><defs><style>.cls-1{fill:url(#未命名的渐变_3159);}.cls-2{fill:url(#未命名的渐变_3159-2);}.cls-3{fill:none;}.cls-4{fill:#fff;}</style><linearGradient id="未命名的渐变_3159" y1="106.73" x2="171.21" y2="106.73" gradientUnits="userSpaceOnUse"><stop offset="0" stop-color="#ffa58d"/><stop offset="1" stop-color="#f7633e"/></linearGradient><linearGradient id="未命名的渐变_3159-2" x1="85.6" y1="-0.71" x2="85.61" y2="99.4" xlink:href="#未命名的渐变_3159"/></defs><title>sr</title><path class="cls-1" d="M171.19,50.15l0,.45c0,.13,0,.26,0,.39s-.05.3-.07.45l-.09.39c0,.15-.06.29-.1.44l-.12.39c0,.15-.09.29-.14.44l-.15.38c-.06.15-.12.31-.19.46s-.11.25-.17.37l-.23.45-.21.36c-.1.18-.21.36-.32.53l-.21.32-.42.58c-.07.08-.13.17-.19.25-.24.31-.5.61-.78.91-.07.07-.14.15-.22.22-.21.23-.44.46-.67.68l-.33.3-.43.37-.41.35-.47.36c-.14.12-.29.23-.44.34l-.51.35-.47.32-.54.35-.7.42L107.08,94c-.65.37-1.33.72-2,1.06l-.54.25c-.63.29-1.27.57-1.92.82l-.25.1c-.7.27-1.42.51-2.15.74-.5.16-1,.3-1.53.44l-1.18.32c-.54.13-1.1.24-1.65.35s-.8.17-1.21.24l-.5.08c-.69.12-1.38.21-2.07.3l-.61.07-1.2.1c-.67,0-1.35.1-2,.13l-1.3,0H85.29l-1.36,0-1.52-.08q-.69,0-1.38-.12l-1.49-.16-1.34-.19-1.58-.28-1.24-.25q-.94-.21-1.86-.45l-1.19-.32L71.7,97c-.61-.19-1.22-.4-1.81-.62l-.52-.19c-.54-.21-1.07-.44-1.59-.67L67,95.14c-.75-.36-1.49-.74-2.19-1.14L9,61.77C4.21,59,1.38,55.54.49,52a10.13,10.13,0,0,1-.31-2.5L0,114.4c0,4.46,2.93,8.92,8.82,12.32L64.63,159q1.07.6,2.19,1.14l.77.33c.45.2.89.41,1.35.59l.24.09.52.19c.6.22,1.2.43,1.82.62l.63.2.42.13c.25.07.51.12.77.18.61.17,1.23.32,1.85.46.17,0,.33.09.5.12l.74.13,1.59.28.63.11.7.07c.5.07,1,.12,1.49.17l.72.08.67,0,1.51.08.76,0h3.06l.48,0c.68,0,1.35-.08,2-.13l.81-.06.39,0,.6-.08c.7-.08,1.38-.18,2.07-.29l.51-.08.24,0,1-.2c.56-.12,1.11-.22,1.66-.36.39-.09.78-.21,1.17-.31s1-.28,1.54-.44l.33-.1c.61-.2,1.22-.41,1.81-.64l.26-.1c.65-.26,1.29-.53,1.91-.82l.55-.26c.69-.33,1.37-.68,2-1.05l55.45-32.23.36-.22a3.7,3.7,0,0,0,.33-.21c.19-.11.37-.22.54-.34s.32-.21.48-.32l.5-.35c.16-.11.3-.23.45-.34l.46-.36.42-.35.43-.37c.05,0,.12-.1.17-.16s.1-.1.15-.14c.24-.23.46-.45.68-.68l.22-.23c.27-.29.53-.59.77-.9,0,0,0,0,0,0l.15-.21c.15-.19.29-.38.42-.58a3.53,3.53,0,0,0,.21-.32,5.84,5.84,0,0,0,.33-.53l.09-.14.11-.22c.08-.15.16-.3.23-.45l.18-.38c.07-.15.13-.3.19-.45a1.67,1.67,0,0,0,.08-.2c0-.06,0-.12.07-.19s.09-.28.14-.43.08-.26.11-.39.08-.29.11-.44l.06-.23c0-.06,0-.11,0-.16s.05-.3.07-.45,0-.26.05-.39a3.4,3.4,0,0,0,0-.45,2.45,2.45,0,0,0,0-.27,2.26,2.26,0,0,0,0-.26l.18-64.95C171.21,49.8,171.2,50,171.19,50.15Z"/><path class="cls-2" d="M162.3,37.29c11.7,6.76,11.77,17.72.14,24.48L107,94c-11.63,6.76-30.56,6.76-42.26,0L8.91,61.77C-2.8,55-2.85,44.05,8.78,37.29L64.23,5.07c11.63-6.76,30.54-6.76,42.25,0Z"/><path class="cls-3" d="M162.3,37.29c11.7,6.76,11.77,17.72.14,24.48L107,94c-11.63,6.76-30.56,6.76-42.26,0L8.91,61.77C-2.8,55-2.85,44.05,8.78,37.29L64.23,5.07c11.63-6.76,30.54-6.76,42.25,0Z"/><path class="cls-4" d="M110.16,124.76v-2.1l1.27-.74c.58-.34,1-.13,1,.49a2,2,0,0,1-1,1.61l-1.26.74m1.36-4.27-2.69,1.56,0,7.94,1.33-.77v-3.17l1-.56,1.33,2.39L114,127l-1.52-2.53a4.12,4.12,0,0,0,1.26-2.81c0-1.33-.82-1.95-2.22-1.14"/><polyline class="cls-4" points="119.66 115.76 115.14 118.39 115.11 126.33 119.63 123.7 119.64 122.32 116.45 124.17 116.46 122.24 119.17 120.66 119.18 119.28 116.46 120.86 116.47 118.99 119.65 117.14 119.66 115.76"/><path class="cls-4" d="M123.27,113.59a5.14,5.14,0,0,0-1.86,2,6.24,6.24,0,0,0-.68,3.56c0,1.38,0,2.38.66,2.78a1.79,1.79,0,0,0,1.85-.21,5.37,5.37,0,0,0,2.53-4l-1.36.8a2.54,2.54,0,0,1-1.16,1.8.77.77,0,0,1-.85.08c-.26-.18-.34-.52-.33-2.05a4.63,4.63,0,0,1,.34-2.43,2.22,2.22,0,0,1,.86-.91c.67-.4,1-.11,1.15.45l1.36-.79c-.23-1.52-1.23-1.79-2.51-1"/><path class="cls-4" d="M129.23,116.81a.75.75,0,0,1-.86.08c-.26-.18-.33-.51-.32-2a4.62,4.62,0,0,1,.33-2.42,2.29,2.29,0,0,1,.87-.93c.37-.21.66-.22.86-.07s.33.5.33,2a4.7,4.7,0,0,1-.35,2.43,2.24,2.24,0,0,1-.86.92m0-6.7a5.17,5.17,0,0,0-1.86,2,6.32,6.32,0,0,0-.69,3.56c0,1.37,0,2.37.67,2.77a1.76,1.76,0,0,0,1.86-.21,5,5,0,0,0,1.85-1.94,6.36,6.36,0,0,0,.7-3.57c0-1.37,0-2.37-.68-2.77a1.76,1.76,0,0,0-1.85.2"/><path class="cls-4" d="M134.49,110.62v-2.1l1.27-.74c.58-.34,1-.13,1,.49a2,2,0,0,1-1,1.61l-1.26.74m1.36-4.27-2.69,1.56,0,7.94,1.33-.77v-3.17l1-.56,1.33,2.39,1.55-.91-1.52-2.53a4.12,4.12,0,0,0,1.26-2.81c0-1.33-.82-1.95-2.22-1.14"/><path class="cls-4" d="M140.79,110v-5.18l1-.59c.47-.26.78-.28,1-.09s.28.69.28,1.9a5,5,0,0,1-.3,2.3,2.46,2.46,0,0,1-1,1.07l-1,.59m1.15-7.22-2.47,1.44,0,7.94,2.48-1.44a4.91,4.91,0,0,0,1.81-1.81,6.45,6.45,0,0,0,.71-3.65c0-1.19.08-2.33-.69-2.77a1.86,1.86,0,0,0-1.81.29"/><polyline class="cls-4" points="150.34 97.92 145.82 100.55 145.8 108.5 150.32 105.87 150.32 104.49 147.14 106.34 147.15 104.41 149.86 102.83 149.86 101.45 147.15 103.02 147.16 101.16 150.34 99.31 150.34 97.92"/><path class="cls-4" d="M153,99.87v-2.1l1.26-.73c.59-.35,1-.14,1,.48a2,2,0,0,1-1,1.62l-1.27.73m1.36-4.27-2.69,1.56,0,8,1.34-.78v-3.17l1-.56,1.33,2.39,1.55-.9-1.52-2.54a4.13,4.13,0,0,0,1.25-2.81c0-1.33-.82-1.95-2.22-1.14"/><path class="cls-4" d="M17.17,98.81c-1.54-.9-2.49-.35-2.49,1.2a4,4,0,0,0,.5,2,5.05,5.05,0,0,0,1.39,1.52l.86.64a2.25,2.25,0,0,1,.63.67,1.72,1.72,0,0,1,.22.86c0,.7-.44.82-1.27.34a4.46,4.46,0,0,1-1.72-1.73l-.91.58A6.47,6.47,0,0,0,17,107.54c1.5.87,2.66.58,2.66-1.1a4.26,4.26,0,0,0-.55-2.16,4.94,4.94,0,0,0-1.36-1.46l-.85-.63a2.47,2.47,0,0,1-.66-.73,1.47,1.47,0,0,1-.21-.74c0-.6.37-.89,1.11-.46a3.71,3.71,0,0,1,1.47,1.45l.89-.55a6,6,0,0,0-2.32-2.35"/><path class="cls-4" d="M23.38,102.39a1.82,1.82,0,0,0-1.93-.17c-.73.47-.72,1.56-.72,3.06a7,7,0,0,0,.7,3.87,5.18,5.18,0,0,0,1.92,2.06c1.33.77,2.39.46,2.64-1.22l-1.42-.82c-.14.62-.5,1-1.21.54a2.32,2.32,0,0,1-.89-1,5.17,5.17,0,0,1-.34-2.65c0-1.67.08-2,.36-2.25s.51-.15.89.07a2.61,2.61,0,0,1,1.2,1.93l1.42.81a5.64,5.64,0,0,0-2.62-4.26"/><path class="cls-4" d="M28.6,109.29V107l1.31.75a2.09,2.09,0,0,1,1,1.74c0,.67-.41.91-1,.56l-1.32-.76m1.42-3-2.81-1.61,0,8.68,1.4.8V110.7l1,.58L31,115.55l1.62.94L31,111.82c.69.1,1.31-.3,1.31-1.53a4.87,4.87,0,0,0-2.31-4"/><polyline class="cls-4" points="38.5 111.19 33.78 108.47 33.76 117.15 38.47 119.87 38.48 118.36 35.16 116.45 35.17 114.34 37.99 115.97 37.99 114.46 35.17 112.83 35.18 110.79 38.49 112.7 38.5 111.19"/><polyline class="cls-4" points="44.58 114.7 39.87 111.98 39.84 120.66 44.55 123.38 44.56 121.87 41.24 119.96 41.25 117.85 44.07 119.48 44.08 117.97 41.25 116.34 41.26 114.3 44.57 116.21 44.58 114.7"/><polyline class="cls-4" points="51.42 118.65 50.03 117.85 50.01 123.16 47.19 116.21 45.95 115.49 45.92 124.17 47.32 124.98 47.33 119.65 50.15 126.61 51.4 127.33 51.42 118.65"/><path class="cls-4" d="M59.55,65.28c-11.36-6.56-11.37-17.21,0-23.81s29.73-6.57,41.11,0,11.31,17.2,0,23.77-29.75,6.6-41.11,0M103.65,40a38.89,38.89,0,0,0-5.21-2.49,49.67,49.67,0,0,0-20.55-3.19c-10.47.45-18.79,3.2-24.87,8.12-4.5,3.65-6.44,7.79-5.87,12.26.6,4.82,3.75,8.87,9.35,12.1a37.64,37.64,0,0,0,4,2c7.16,3.1,15.28,4.2,24.11,3.55A53.55,53.55,0,0,0,93,71l3-.86a37.1,37.1,0,0,0,5-2c1-.52,2.1-1,3-1.61a24.47,24.47,0,0,0,4.07-3l.2-.15,1.62-1.75.2-.27A12.1,12.1,0,0,0,113,52.05c-.67-4.84-3.81-8.88-9.36-12.08"/><path class="cls-4" d="M123.21,63.6a4.93,4.93,0,0,0-1.76-.55L109.93,61.6l-1.62,1.75,12.41,1.57c0,.14-.15.18-.25.24L99.41,77.34c-.12.07-.23.2-.42.17l-.07,0c-.09-.06-.08-.17-.11-.25l-2.64-6.8a2.19,2.19,0,0,0-.16-.3L93,71c.91,2.31,1.81,4.63,2.7,6.94a2,2,0,0,0,.92,1,4.25,4.25,0,0,0,1.4.47,4.89,4.89,0,0,0,3.34-.51l21.77-12.59a2,2,0,0,0,.94-1c.26-.69-.08-1.33-.86-1.78"/><path class="cls-4" d="M92.29,20.36a9.82,9.82,0,0,0-8.85,0C81,21.75,81,24.05,83.38,25.47l0,0a9.79,9.79,0,0,0,8.88,0c2.45-1.41,2.46-3.72,0-5.14h0"/><path class="cls-4" d="M88.47,48.67h0c-4.55-2.62-11.89-2.61-16.39,0s-4.43,6.86,0,9.44h0c4.61,2.65,11.92,2.63,16.47,0s4.38-6.84-.13-9.45"/></svg>