<svg width="121" height="33" fill="none" xmlns="http://www.w3.org/2000/svg"><g clip-path="url(#clip0_3311_1194)"><path d="M19.984 14.871c1.803 0 3.264.618 4.383 1.852 1.13 1.235 1.694 2.82 1.694 4.755v10.85h-3.528v-9.986c0-1.379-.29-2.444-.87-3.195-.58-.751-1.404-1.127-2.472-1.127-1.15 0-2.113.468-2.89 1.405-.767.936-1.15 2.125-1.15 3.565v9.339H11.7v-9.987c0-1.379-.29-2.444-.871-3.195-.57-.751-1.394-1.127-2.471-1.127-1.15 0-2.114.468-2.89 1.405-.778.936-1.166 2.125-1.166 3.565v9.339H.775V15.257h2.502l.606 2.207a6.853 6.853 0 012.378-1.898 6.65 6.65 0 012.968-.695c1.15 0 2.17.268 3.062.803a5.431 5.431 0 012.098 2.192 6.864 6.864 0 012.425-2.192 6.536 6.536 0 013.17-.803zm27.213 8.969c0 .329-.026.71-.077 1.142H33.163c.218 1.378.798 2.47 1.741 3.272.943.802 2.119 1.204 3.528 1.204 1.015 0 1.922-.221 2.72-.664a4.841 4.841 0 001.896-1.837h3.73c-.684 1.801-1.767 3.216-3.248 4.245-1.482 1.03-3.181 1.544-5.098 1.544-2.507 0-4.605-.854-6.294-2.563-1.69-1.718-2.534-3.848-2.534-6.39 0-1.677.384-3.2 1.15-4.569a8.311 8.311 0 013.17-3.21c1.348-.783 2.85-1.174 4.508-1.174 1.71 0 3.238.407 4.585 1.22a8.088 8.088 0 013.092 3.257c.726 1.358 1.088 2.866 1.088 4.522zm-8.765-5.835c-1.316 0-2.435.37-3.357 1.111-.922.74-1.528 1.75-1.818 3.025h10.397c-.321-1.296-.948-2.31-1.88-3.04-.923-.731-2.037-1.096-3.342-1.096zM58.387 29.15h1.959v3.179h-2.627c-1.886 0-3.372-.54-4.46-1.62-1.088-1.092-1.632-2.579-1.632-4.462v-7.98H48.55v-.68l5.983-6.312h.606v3.982h5.113v3.01H55.17v7.702c0 1.02.275 1.806.824 2.362.56.546 1.357.818 2.393.818zm21.541-5.31c0 .329-.026.71-.078 1.142H65.894c.218 1.378.798 2.47 1.74 3.272.944.802 2.12 1.204 3.529 1.204 1.015 0 1.922-.221 2.72-.664a4.841 4.841 0 001.895-1.837h3.73c-.683 1.801-1.766 3.216-3.248 4.245-1.481 1.03-3.18 1.544-5.097 1.544-2.508 0-4.606-.854-6.295-2.563-1.689-1.718-2.533-3.848-2.533-6.39 0-1.677.383-3.2 1.15-4.569a8.31 8.31 0 013.17-3.21c1.347-.783 2.85-1.174 4.508-1.174 1.71 0 3.237.407 4.584 1.22a8.088 8.088 0 013.093 3.257c.725 1.358 1.088 2.866 1.088 4.522zm-8.765-5.835c-1.316 0-2.435.37-3.357 1.111-.922.74-1.529 1.75-1.819 3.025h10.398c-.322-1.296-.948-2.31-1.88-3.04-.923-.731-2.037-1.096-3.342-1.096zm25.13 13.583c-1.398.772-2.963 1.158-4.693 1.158-1.73 0-3.295-.386-4.694-1.158a8.634 8.634 0 01-3.294-3.21c-.798-1.37-1.197-2.897-1.197-4.585 0-1.698.399-3.226 1.197-4.584a8.49 8.49 0 013.294-3.211c1.4-.772 2.964-1.158 4.694-1.158s3.295.386 4.694 1.158a8.49 8.49 0 013.294 3.21c.798 1.37 1.197 2.897 1.197 4.585 0 1.688-.399 3.216-1.197 4.584a8.634 8.634 0 01-3.294 3.211zm-8.718-3.766c1.056 1.05 2.398 1.574 4.025 1.574 1.627 0 2.963-.525 4.01-1.574 1.056-1.05 1.585-2.393 1.585-4.029 0-1.636-.528-2.98-1.585-4.029-1.047-1.05-2.383-1.574-4.01-1.574-1.627 0-2.969.525-4.025 1.574-1.047 1.05-1.57 2.393-1.57 4.029 0 1.636.523 2.98 1.57 4.029z" fill="#2196F3"/><path fill-rule="evenodd" clip-rule="evenodd" d="M35.972 10.105C38.146 6.766 44.846.273 54.804.273c9.957 0 16.657 6.493 18.831 9.832l-3.122 2.005c-1.727-2.654-7.398-8.145-15.71-8.145-8.31 0-13.981 5.491-15.709 8.145l-3.122-2.005z" fill="#2196F3"/><ellipse cx="110.852" cy="10.077" rx="9.329" ry="9.265" fill="#FFC823"/><path d="M107.719 13.092c-.7 0-1.266-.203-1.697-.61-.428-.407-.642-.944-.642-1.61V8.026h1.342v2.696c0 .35.089.626.265.825.177.196.42.294.732.294.311 0 .553-.1.727-.299.173-.199.26-.472.26-.82V8.025h1.342v2.848c0 .665-.213 1.202-.637 1.609-.425.407-.989.61-1.692.61zm7.598-5.076h1.005v4.93h-1.055l-.117-.442a2.368 2.368 0 01-1.606.588 2.65 2.65 0 01-1.333-.338 2.433 2.433 0 01-.934-.936 2.695 2.695 0 01-.336-1.337c0-.488.112-.929.336-1.324.225-.398.536-.709.934-.932a2.652 2.652 0 011.333-.339c.631 0 1.174.201 1.629.602l.144-.472zm-2.635 3.432c.257.255.581.383.97.383.388 0 .71-.128.964-.383.258-.256.386-.578.386-.967 0-.39-.128-.712-.386-.968-.254-.255-.576-.383-.964-.383a1.312 1.312 0 00-1.351 1.35c0 .387.127.71.381.968z" fill="#fff"/></g><defs><clipPath id="clip0_3311_1194"><path fill="#fff" transform="translate(.5)" d="M0 0h120v33H0z"/></clipPath></defs></svg>