<svg width="18" height="18" viewBox="0 0 18 18" fill="none" xmlns="http://www.w3.org/2000/svg">
<path fill-rule="evenodd" clip-rule="evenodd" d="M11.4217 12.5992C10.2928 13.4768 8.87425 13.9994 7.33366 13.9994C3.65176 13.9994 0.666992 11.0146 0.666992 7.33268C0.666992 3.65078 3.65176 0.666016 7.33366 0.666016C11.0156 0.666016 14.0003 3.65078 14.0003 7.33268C14.0003 8.87328 13.4778 10.2918 12.6002 11.4207L17.0896 15.9101C17.415 16.2355 17.415 16.7632 17.0896 17.0886C16.7641 17.414 16.2365 17.414 15.9111 17.0886L11.4217 12.5992ZM12.3337 7.33268C12.3337 10.0941 10.0951 12.3327 7.33366 12.3327C4.57224 12.3327 2.33366 10.0941 2.33366 7.33268C2.33366 4.57126 4.57224 2.33268 7.33366 2.33268C10.0951 2.33268 12.3337 4.57126 12.3337 7.33268Z" fill="#333333"/>
</svg>
