<svg width="64" height="21" viewBox="0 0 64 21" fill="none" xmlns="http://www.w3.org/2000/svg">
<path d="M24.4664 0.362166L16.2199 20.1801H10.8398L6.78164 4.36448C6.53527 3.39034 6.32104 3.03346 5.57175 2.62305C4.34841 1.95457 2.32821 1.32739 0.550781 0.938127L0.671507 0.362166H9.33198C10.4359 0.362166 11.4283 1.10236 11.6789 2.38282L13.8222 13.8505L19.119 0.361835H24.4664V0.362166ZM45.5469 13.7097C45.5686 8.47915 38.3663 8.19101 38.4159 5.85445C38.4313 5.14334 39.1035 4.38728 40.5749 4.19431C41.3041 4.09815 43.3135 4.02479 45.5925 5.08121L46.4865 0.878645C45.2619 0.430896 43.6862 0 41.7257 0C36.6949 0 33.1544 2.69377 33.1246 6.55102C33.0921 9.40406 35.6516 10.9961 37.58 11.9442C39.5638 12.915 40.2294 13.5389 40.2219 14.4073C40.2078 15.7367 38.6396 16.3235 37.1742 16.3467C34.616 16.3863 33.1315 15.6494 31.9482 15.0953L31.0257 19.437C32.2149 19.9865 34.4099 20.466 36.6857 20.4901C42.0328 20.4901 45.5305 17.8297 45.5469 13.7097ZM58.8314 20.1801H63.5388L59.4298 0.362166H55.085C54.108 0.362166 53.2839 0.935153 52.9191 1.81611L45.2815 20.1801H50.626L51.6869 17.22H58.217L58.8314 20.1801ZM53.1524 13.1582L55.8313 5.71732L57.3732 13.1582H53.1524ZM31.7385 0.362166L27.5298 20.1801H22.4403L26.6506 0.362166H31.7385Z" fill="#A2ABB8"/>
</svg>
