<?xml version="1.0" encoding="utf-8"?>
<!-- Generator: Adobe Illustrator 21.0.2, SVG Export Plug-In . SVG Version: 6.00 Build 0)  -->
<svg version="1.1" id="Слой_1" xmlns="http://www.w3.org/2000/svg" xmlns:xlink="http://www.w3.org/1999/xlink" x="0px" y="0px"
	 viewBox="0 0 628.2 158.3" style="enable-background:new 0 0 628.2 158.3;" xml:space="preserve">
<style type="text/css">
	.st0{fill:#0061AF;}
	.st1{fill:#E60033;}
</style>
<g>
	<g>
		<path class="st0" d="M340.1,106.5c2.4,29.8,48.9,24.7,69,18.3l5,25.8c-47,18-109.8,6.3-109.8-54.9c0-81.5,116.5-90.4,116.5-4.2
			c0,6.5-0.7,12.3-1.2,15H340.1L340.1,106.5z M385.5,80.4c0-33.7-45.5-34.1-45.1,0H385.5L385.5,80.4z M460,67
			c0-15.5,28.9-10.5,37.6-7l2.7-25.8c-29.3-9.1-74.6-2.3-74.6,36.2c-0.6,38,55.3,32.8,55.3,50.9c0,19.1-43.8,9.3-53.4,3.5l-5,25.8
			c32.6,14.4,94.4,11.2,92.7-32C514.9,76.7,460,84.1,460,67L460,67z M503.6,60h17.9v51.3c0,26.9,6.8,47,36.6,47
			c10.8,0,19.7-2.7,24.7-4.7l0-28.8c-17.8,3.3-26.5,4.5-26.5-19.3V0l-34.8,0v34.1h-15.2L503.6,60 M106.7,155.8L106.7,155.8L137,34.2
			l8.1,124.1h34.1L168.8,0h-53.2L89.6,106.4L63.5,0H10.4L0,158.3h34.1l8.1-124.1l30.3,121.6H106.7 M590.2,46.7l-6.9-12.6h-20.7V60
			h20.3L590.2,46.7z"/>
		<path class="st1" d="M217.1,106.5c2.4,29.8,48.9,24.7,69,18.3l5,25.8c-47,18-109.8,6.3-109.8-54.9c0-81.5,116.5-90.4,116.5-4.2
			c0,6.5-0.7,12.3-1.2,15H217.1L217.1,106.5z M262.5,80.4c0-33.7-45.5-34.1-45.1,0H262.5L262.5,80.4z M602.1,0h-25.8l25.8,46.7
			l-25.8,46.7h25.8l26.1-46.7L602.1,0z"/>
	</g>
</g>
</svg>
