<?xml version="1.0" encoding="utf-8"?>
<!-- Generator: Adobe Illustrator 19.1.1, SVG Export Plug-In . SVG Version: 6.00 Build 0)  -->
<svg version="1.1" xmlns="http://www.w3.org/2000/svg" xmlns:xlink="http://www.w3.org/1999/xlink" x="0px" y="0px"
	 viewBox="0 0 184 66" style="enable-background:new 0 0 184 66;" xml:space="preserve">
<style type="text/css">
	.st0{fill-rule:evenodd;clip-rule:evenodd;fill:#FFFFFF;}
	.st1{fill:#FFFFFF;}
	.st2{fill-rule:evenodd;clip-rule:evenodd;fill:#96B5C6;}
</style>
<g id="Layer_1">
</g>
<g id="Layer_2">
	<g>
		<g>
			<path class="st0" d="M59.1,39.9V22.3h2.2v6.3c1-1.2,2.3-1.8,3.8-1.8c0.9,0,1.8,0.2,2.5,0.6c0.7,0.4,1.2,0.9,1.5,1.5
				c0.3,0.7,0.5,1.6,0.5,2.9v8.1h-2.2v-8.1c0-1.1-0.2-1.9-0.7-2.4c-0.5-0.5-1.1-0.7-2-0.7c-0.6,0-1.2,0.2-1.8,0.5
				c-0.6,0.3-1,0.8-1.2,1.4s-0.4,1.4-0.4,2.4v7H59.1z"/>
			<path class="st0" d="M77.5,38l0.3,1.9c-0.6,0.1-1.2,0.2-1.6,0.2c-0.8,0-1.4-0.1-1.8-0.4c-0.4-0.2-0.7-0.6-0.9-1s-0.3-1.3-0.3-2.6
				v-7.3h-1.6v-1.7h1.6V24l2.1-1.3v4.5h2.2v1.7h-2.2v7.5c0,0.6,0,1,0.1,1.2c0.1,0.2,0.2,0.3,0.4,0.4c0.2,0.1,0.4,0.2,0.7,0.2
				C76.8,38.1,77.2,38,77.5,38z"/>
			<path class="st0" d="M79.7,39.9V27.1h1.9v1.8c0.4-0.6,0.9-1.1,1.6-1.5c0.7-0.4,1.4-0.6,2.3-0.6c0.9,0,1.7,0.2,2.3,0.6
				c0.6,0.4,1,0.9,1.3,1.6c1-1.5,2.3-2.2,3.9-2.2c1.3,0,2.2,0.4,2.9,1.1c0.7,0.7,1,1.8,1,3.2v8.8h-2.1v-8c0-0.9-0.1-1.5-0.2-1.9
				c-0.1-0.4-0.4-0.7-0.8-0.9c-0.4-0.2-0.8-0.3-1.3-0.3c-0.9,0-1.6,0.3-2.2,0.9c-0.6,0.6-0.9,1.6-0.9,2.9v7.4h-2.2v-8.3
				c0-1-0.2-1.7-0.5-2.2c-0.4-0.5-0.9-0.7-1.7-0.7c-0.6,0-1.2,0.2-1.7,0.5c-0.5,0.3-0.9,0.8-1.1,1.4c-0.2,0.6-0.3,1.5-0.3,2.7v6.6
				H79.7z"/>
			<path class="st0" d="M100.1,39.9V22.3h2.2v17.6H100.1z"/>
			<path class="st0" d="M107.6,39.9h-2V22.3h2.2v6.3c0.9-1.1,2.1-1.7,3.5-1.7c0.8,0,1.5,0.2,2.2,0.5c0.7,0.3,1.3,0.8,1.7,1.3
				c0.5,0.6,0.8,1.3,1.1,2.1c0.3,0.8,0.4,1.7,0.4,2.6c0,2.2-0.5,3.9-1.6,5.1c-1.1,1.2-2.4,1.8-3.9,1.8c-1.5,0-2.7-0.6-3.5-1.9V39.9z
				 M107.6,33.4c0,1.5,0.2,2.6,0.6,3.3c0.7,1.1,1.6,1.7,2.8,1.7c0.9,0,1.8-0.4,2.5-1.2c0.7-0.8,1-2,1-3.7c0-1.7-0.3-2.9-1-3.7
				c-0.7-0.8-1.5-1.2-2.4-1.2c-0.9,0-1.8,0.4-2.5,1.2S107.6,31.9,107.6,33.4z"/>
			<path class="st0" d="M118.5,33.5c0-2.4,0.7-4.1,2-5.2c1.1-0.9,2.4-1.4,4-1.4c1.8,0,3.2,0.6,4.3,1.7c1.1,1.1,1.7,2.7,1.7,4.8
				c0,1.6-0.2,2.9-0.7,3.9c-0.5,0.9-1.2,1.7-2.2,2.2c-0.9,0.5-2,0.8-3.1,0.8c-1.8,0-3.2-0.6-4.3-1.7C119,37.3,118.5,35.7,118.5,33.5
				z M120.7,33.5c0,1.6,0.4,2.9,1.1,3.7c0.7,0.8,1.6,1.2,2.7,1.2c1.1,0,2-0.4,2.7-1.2c0.7-0.8,1.1-2.1,1.1-3.7
				c0-1.6-0.4-2.8-1.1-3.6s-1.6-1.2-2.7-1.2c-1.1,0-2,0.4-2.7,1.2C121.1,30.7,120.7,31.9,120.7,33.5z"/>
			<path class="st0" d="M132.2,33.5c0-2.4,0.7-4.1,2-5.2c1.1-0.9,2.4-1.4,4-1.4c1.8,0,3.2,0.6,4.3,1.7c1.1,1.1,1.7,2.7,1.7,4.8
				c0,1.6-0.2,2.9-0.7,3.9c-0.5,0.9-1.2,1.7-2.1,2.2c-0.9,0.5-2,0.8-3.1,0.8c-1.8,0-3.2-0.6-4.3-1.7
				C132.7,37.3,132.2,35.7,132.2,33.5z M134.4,33.5c0,1.6,0.4,2.9,1.1,3.7s1.6,1.2,2.7,1.2c1.1,0,2-0.4,2.7-1.2
				c0.7-0.8,1.1-2.1,1.1-3.7c0-1.6-0.4-2.8-1.1-3.6c-0.7-0.8-1.6-1.2-2.7-1.2c-1.1,0-2,0.4-2.7,1.2
				C134.7,30.7,134.4,31.9,134.4,33.5z"/>
			<path class="st0" d="M146.7,39.9V22.3h2.2v10l5.1-5.2h2.8l-4.9,4.7l5.4,8h-2.7l-4.2-6.5l-1.5,1.5v5.1H146.7z"/>
			<path class="st0" d="M159.6,39.9v-2.5h2.5v2.5H159.6z"/>
			<path class="st0" d="M165.8,39.9V27.1h1.9v1.9c0.5-0.9,1-1.5,1.4-1.8c0.4-0.3,0.9-0.4,1.4-0.4c0.7,0,1.5,0.2,2.2,0.7l-0.7,2
				c-0.5-0.3-1.1-0.5-1.6-0.5c-0.5,0-0.9,0.1-1.3,0.4c-0.4,0.3-0.6,0.7-0.8,1.2c-0.2,0.8-0.4,1.6-0.4,2.5v6.7H165.8z"/>
			<path class="st0" d="M182.3,39.9V38c-1,1.4-2.3,2.2-4,2.2c-0.8,0-1.5-0.1-2.1-0.4c-0.7-0.3-1.1-0.7-1.5-1.1
				c-0.3-0.4-0.5-1-0.7-1.6c-0.1-0.4-0.1-1.1-0.1-2v-7.9h2.2v7.1c0,1.1,0,1.9,0.1,2.3c0.1,0.6,0.4,1,0.9,1.3s1,0.5,1.6,0.5
				s1.3-0.2,1.8-0.5c0.6-0.3,1-0.8,1.2-1.4c0.2-0.6,0.4-1.4,0.4-2.5v-6.8h2.2v12.8H182.3z"/>
		</g>
		<g>
			<path class="st1" d="M59.1,39.9V22.3h2.2v6.3c1-1.2,2.3-1.8,3.8-1.8c0.9,0,1.8,0.2,2.5,0.6c0.7,0.4,1.2,0.9,1.5,1.5
				c0.3,0.7,0.5,1.6,0.5,2.9v8.1h-2.2v-8.1c0-1.1-0.2-1.9-0.7-2.4c-0.5-0.5-1.1-0.7-2-0.7c-0.6,0-1.2,0.2-1.8,0.5
				c-0.6,0.3-1,0.8-1.2,1.4s-0.4,1.4-0.4,2.4v7H59.1z"/>
			<path class="st1" d="M77.5,38l0.3,1.9c-0.6,0.1-1.2,0.2-1.6,0.2c-0.8,0-1.4-0.1-1.8-0.4c-0.4-0.2-0.7-0.6-0.9-1s-0.3-1.3-0.3-2.6
				v-7.3h-1.6v-1.7h1.6V24l2.1-1.3v4.5h2.2v1.7h-2.2v7.5c0,0.6,0,1,0.1,1.2c0.1,0.2,0.2,0.3,0.4,0.4c0.2,0.1,0.4,0.2,0.7,0.2
				C76.8,38.1,77.2,38,77.5,38z"/>
			<path class="st1" d="M79.7,39.9V27.1h1.9v1.8c0.4-0.6,0.9-1.1,1.6-1.5c0.7-0.4,1.4-0.6,2.3-0.6c0.9,0,1.7,0.2,2.3,0.6
				c0.6,0.4,1,0.9,1.3,1.6c1-1.5,2.3-2.2,3.9-2.2c1.3,0,2.2,0.4,2.9,1.1c0.7,0.7,1,1.8,1,3.2v8.8h-2.1v-8c0-0.9-0.1-1.5-0.2-1.9
				c-0.1-0.4-0.4-0.7-0.8-0.9c-0.4-0.2-0.8-0.3-1.3-0.3c-0.9,0-1.6,0.3-2.2,0.9c-0.6,0.6-0.9,1.6-0.9,2.9v7.4h-2.2v-8.3
				c0-1-0.2-1.7-0.5-2.2c-0.4-0.5-0.9-0.7-1.7-0.7c-0.6,0-1.2,0.2-1.7,0.5c-0.5,0.3-0.9,0.8-1.1,1.4c-0.2,0.6-0.3,1.5-0.3,2.7v6.6
				H79.7z"/>
			<path class="st1" d="M100.1,39.9V22.3h2.2v17.6H100.1z"/>
			<path class="st1" d="M107.6,39.9h-2V22.3h2.2v6.3c0.9-1.1,2.1-1.7,3.5-1.7c0.8,0,1.5,0.2,2.2,0.5c0.7,0.3,1.3,0.8,1.7,1.3
				c0.5,0.6,0.8,1.3,1.1,2.1c0.3,0.8,0.4,1.7,0.4,2.6c0,2.2-0.5,3.9-1.6,5.1c-1.1,1.2-2.4,1.8-3.9,1.8c-1.5,0-2.7-0.6-3.5-1.9V39.9z
				 M107.6,33.4c0,1.5,0.2,2.6,0.6,3.3c0.7,1.1,1.6,1.7,2.8,1.7c0.9,0,1.8-0.4,2.5-1.2c0.7-0.8,1-2,1-3.7c0-1.7-0.3-2.9-1-3.7
				c-0.7-0.8-1.5-1.2-2.4-1.2c-0.9,0-1.8,0.4-2.5,1.2S107.6,31.9,107.6,33.4z"/>
			<path class="st1" d="M118.5,33.5c0-2.4,0.7-4.1,2-5.2c1.1-0.9,2.4-1.4,4-1.4c1.8,0,3.2,0.6,4.3,1.7c1.1,1.1,1.7,2.7,1.7,4.8
				c0,1.6-0.2,2.9-0.7,3.9c-0.5,0.9-1.2,1.7-2.2,2.2c-0.9,0.5-2,0.8-3.1,0.8c-1.8,0-3.2-0.6-4.3-1.7C119,37.3,118.5,35.7,118.5,33.5
				z M120.7,33.5c0,1.6,0.4,2.9,1.1,3.7c0.7,0.8,1.6,1.2,2.7,1.2c1.1,0,2-0.4,2.7-1.2c0.7-0.8,1.1-2.1,1.1-3.7
				c0-1.6-0.4-2.8-1.1-3.6s-1.6-1.2-2.7-1.2c-1.1,0-2,0.4-2.7,1.2C121.1,30.7,120.7,31.9,120.7,33.5z"/>
			<path class="st1" d="M132.2,33.5c0-2.4,0.7-4.1,2-5.2c1.1-0.9,2.4-1.4,4-1.4c1.8,0,3.2,0.6,4.3,1.7c1.1,1.1,1.7,2.7,1.7,4.8
				c0,1.6-0.2,2.9-0.7,3.9c-0.5,0.9-1.2,1.7-2.1,2.2c-0.9,0.5-2,0.8-3.1,0.8c-1.8,0-3.2-0.6-4.3-1.7
				C132.7,37.3,132.2,35.7,132.2,33.5z M134.4,33.5c0,1.6,0.4,2.9,1.1,3.7s1.6,1.2,2.7,1.2c1.1,0,2-0.4,2.7-1.2
				c0.7-0.8,1.1-2.1,1.1-3.7c0-1.6-0.4-2.8-1.1-3.6c-0.7-0.8-1.6-1.2-2.7-1.2c-1.1,0-2,0.4-2.7,1.2
				C134.7,30.7,134.4,31.9,134.4,33.5z"/>
			<path class="st1" d="M146.7,39.9V22.3h2.2v10l5.1-5.2h2.8l-4.9,4.7l5.4,8h-2.7l-4.2-6.5l-1.5,1.5v5.1H146.7z"/>
			<path class="st1" d="M159.6,39.9v-2.5h2.5v2.5H159.6z"/>
			<path class="st1" d="M165.8,39.9V27.1h1.9v1.9c0.5-0.9,1-1.5,1.4-1.8c0.4-0.3,0.9-0.4,1.4-0.4c0.7,0,1.5,0.2,2.2,0.7l-0.7,2
				c-0.5-0.3-1.1-0.5-1.6-0.5c-0.5,0-0.9,0.1-1.3,0.4c-0.4,0.3-0.6,0.7-0.8,1.2c-0.2,0.8-0.4,1.6-0.4,2.5v6.7H165.8z"/>
			<path class="st1" d="M182.3,39.9V38c-1,1.4-2.3,2.2-4,2.2c-0.8,0-1.5-0.1-2.1-0.4c-0.7-0.3-1.1-0.7-1.5-1.1
				c-0.3-0.4-0.5-1-0.7-1.6c-0.1-0.4-0.1-1.1-0.1-2v-7.9h2.2v7.1c0,1.1,0,1.9,0.1,2.3c0.1,0.6,0.4,1,0.9,1.3s1,0.5,1.6,0.5
				s1.3-0.2,1.8-0.5c0.6-0.3,1-0.8,1.2-1.4c0.2-0.6,0.4-1.4,0.4-2.5v-6.8h2.2v12.8H182.3z"/>
		</g>
	</g>
	<g>
		<polygon class="st0" points="24.9,33.7 41.9,38.2 38,41.9 40.9,45.2 36.4,50 33.2,46.9 28.6,50.5 		"/>
		<path class="st2" d="M47.4,40.7l0.8-2.9l-4.8-1.3L39,20l3.4-3.4l-2.1-2.1l-3.5,3.5l-16.3-4.4l-1.3-4.8l-2.9,0.8l1.3,4.8l-12,12
			l-4.8-1.3L0,28l4.8,1.3l4.4,16.3l-3.6,3.5l2.1,2.1l3.5-3.5l16.3,4.4l1.3,4.9l3-0.9l-1.3-4.8l2.6-2.6l3.3,3.4l6.6-6.7l-3.3-3.3
			l2.7-2.7L47.4,40.7z M34.3,20.4l-2.8,2.8l-9.2-2.5l-1-3.8L34.3,20.4z M23.1,35.8l1.6,5.8l-5.8-1.6L23.1,35.8z M16.9,37.9l-1.6-5.9
			l5.9,1.6L16.9,37.9z M23.3,24l5.9,1.6L24.9,30L23.3,24z M31.3,27.7l1.6,6l-5.9-1.6L31.3,27.7z M22,30.7l-6-1.6l4.4-4.4L22,30.7z
			 M18.5,17.7l1,3.8l-6.8,6.8l-3.8-1L18.5,17.7z M8.2,30.1l3.8,1l2.5,9.1l-2.8,2.8L8.2,30.1z M13.7,45.3l2.8-2.8l9.1,2.5l1,3.8
			L13.7,45.3z M39.4,38.6l-3.6,3.6l3.3,3.3l0,0l0,0L36.6,48l-3.3-3.3l-3.6,3.7l-3.6-13.3V35L39.4,38.6L39.4,38.6L39.4,38.6z
			 M36.2,34.5l-2.5-9.3l2.9-2.8l3.5,13.2L36.2,34.5z"/>
	</g>
</g>
</svg>
