<svg width="250" height="56" viewBox="0 0 250 56" fill="none" xmlns="http://www.w3.org/2000/svg">
<g clip-path="url(#clip0_2_498)">
<path d="M21.0494 2.96059C24.4872 0.975783 28.7227 0.975783 32.1605 2.96059L46.1213 11.0209C49.5591 13.0057 51.6769 16.6738 51.6769 20.6434V36.764C51.6769 40.7336 49.5591 44.4017 46.1213 46.3865L32.1605 54.4468C28.7227 56.4316 24.4872 56.4316 21.0494 54.4468L7.08851 46.3865C3.65072 44.4017 1.53296 40.7336 1.53296 36.764V20.6434C1.53296 16.6738 3.65072 13.0057 7.08851 11.0209L21.0494 2.96059Z" fill="#575756"/>
<path d="M20.5555 1.36964C23.6113 -0.394636 27.3762 -0.394636 30.432 1.36964L46.0551 10.3896C49.111 12.1539 50.9934 15.4144 50.9934 18.943V36.983C50.9934 40.5115 49.111 43.772 46.0551 45.5363L30.432 54.5563C27.3762 56.3206 23.6113 56.3206 20.5555 54.5563L4.93241 45.5363C1.8766 43.772 -0.00585938 40.5115 -0.00585938 36.983V18.943C-0.00585938 15.4144 1.8766 12.1539 4.93241 10.3896L20.5555 1.36964Z" fill="url(#paint0_linear_2_498)"/>
<path fill-rule="evenodd" clip-rule="evenodd" d="M47.2209 34.8247C47.445 35.3266 47.5606 35.8701 47.5604 36.4198C47.5604 36.5037 47.5567 36.5877 47.5518 36.6729L49.2588 37.208C49.0423 37.7643 48.8066 38.3122 48.5522 38.8509L47.0357 38.3753C46.7727 38.8311 46.4209 39.2295 46.0012 39.5469L46.9624 41.7228C46.5883 42.3065 46.1902 42.8753 45.7691 43.4275L44.3753 40.2716C43.6413 40.4127 42.8822 40.3407 42.1879 40.0642C41.4935 39.7877 40.8928 39.3182 40.4567 38.7111L28.8888 43.5259C29.0854 44.3292 29.108 45.1652 28.9552 45.978C28.8023 46.7907 28.4774 47.5613 28.0024 48.2383L32.4349 52.5003C31.755 52.6927 31.0689 52.8561 30.3785 52.9908L26.7691 49.5198C25.7697 50.2806 24.5504 50.6966 23.2944 50.7053C22.0384 50.714 20.8135 50.3149 19.8037 49.5679L17.2489 52.0935C16.635 51.8838 16.0273 51.6499 15.4272 51.3919L18.553 48.3025C18.0921 47.6652 17.7661 46.9405 17.595 46.1729L8.2969 46.7919C7.71403 46.2596 7.15792 45.702 6.62986 45.1213L17.4777 44.4013C17.5521 43.5549 17.8115 42.7352 18.2375 42C18.6635 41.2649 19.2458 40.6323 19.9432 40.1469L13.4999 26.9605C12.368 27.3134 11.1563 27.3194 10.0209 26.9778L4.58884 38.3951C5.18879 38.897 5.60499 39.5841 5.77206 40.3483C5.93913 41.1125 5.8476 41.9105 5.51186 42.6171C5.39992 42.8527 5.26294 43.0736 5.10419 43.2766C4.80197 42.8741 4.51191 42.463 4.23434 42.0438C4.24656 42.0175 4.25826 41.9908 4.26942 41.9639C4.43104 41.574 4.47339 41.145 4.39111 40.731C4.30884 40.3171 4.10563 39.9369 3.80721 39.6384C3.50878 39.34 3.12854 39.1368 2.7146 39.0545C2.6495 39.0416 2.58402 39.0317 2.51838 39.0249C2.29245 38.5558 2.08075 38.0795 1.88368 37.5966C2.2461 37.5525 2.6156 37.5645 2.97896 37.6346L8.41106 26.2173C7.85859 25.8433 7.37318 25.3787 6.97526 24.8432L0.000724151 28.5435C-0.00365899 28.3503 -0.00585938 28.1568 -0.00585938 27.963C-0.00585938 27.4787 0.00787238 26.9964 0.035061 26.5166L6.14563 23.2778C5.83546 22.394 5.73986 21.4492 5.86672 20.5213C5.99358 19.5933 6.33927 18.7088 6.87526 17.9408L3.62263 14.8525C3.93348 14.3339 4.26279 13.8263 4.60997 13.3307L8.09748 16.6445C9.03425 15.9142 10.17 15.4843 11.3555 15.4111L11.9222 8.95063C11.2045 8.6958 10.5891 8.21565 10.1675 7.58268C10.5486 7.29618 10.9388 7.01956 11.3379 6.75329C11.4192 6.88092 11.5146 6.99998 11.6227 7.10809C11.9154 7.40075 12.2882 7.60005 12.6942 7.68079C13.1001 7.76153 13.5208 7.72009 13.9032 7.56171C14.2856 7.40333 14.6124 7.13511 14.8423 6.79099C15.0723 6.44686 15.195 6.04228 15.195 5.6284C15.195 5.31331 15.1239 5.00554 14.9907 4.72653C15.4296 4.52805 15.8728 4.34263 16.3197 4.17026C16.5684 4.71956 16.6733 5.32633 16.6202 5.93273C16.5519 6.71122 16.227 7.44497 15.6964 8.01872C15.1658 8.59246 14.4596 8.97368 13.6888 9.10248L13.1222 15.563C14.0732 15.7945 14.952 16.258 15.6801 16.9121C16.4083 17.5661 16.9631 18.3904 17.295 19.3111L26.6777 17.4691C26.658 17.2321 26.6456 16.9951 26.6456 16.7482C26.643 14.5565 27.5075 12.4528 29.0506 10.8963L22.3353 2.65949C23.0463 2.57083 23.7602 2.51222 24.475 2.48367L30.4246 9.78149C31.4223 9.13217 32.5477 8.70447 33.7249 8.52727C34.902 8.35007 36.1035 8.4275 37.2481 8.75433L38.3995 5.97038C38.9215 6.27667 39.43 6.59995 39.9246 6.9393L38.9 9.41729C39.9998 10.0086 40.9526 10.8394 41.6881 11.8485C42.4237 12.8575 42.923 14.0189 43.1493 15.2469L47.4098 14.9277C47.7425 15.4869 48.0536 16.0588 48.3427 16.6421L43.2802 17.021C43.2351 18.4363 42.8294 19.8166 42.1015 21.0313C41.3736 22.2459 40.3477 23.2546 39.1209 23.9617L42.9185 32.5642C43.1561 32.519 43.3975 32.4962 43.6395 32.4963C44.5559 32.4947 45.4437 32.8159 46.1469 33.4037L50.9284 29.7849C50.8693 30.6124 50.7701 31.4322 50.6324 32.2419L47.2209 34.8247ZM37.4938 24.6827C36.6759 24.9433 35.8226 25.0757 34.9641 25.0753C34.1509 25.0731 33.3424 24.9521 32.5641 24.7161L30.7728 29.0457C31.1764 29.3585 31.5031 29.7596 31.7278 30.2182C31.9525 30.6767 32.0693 31.1807 32.0691 31.6914V31.8148L40.2814 34.3901C40.5432 33.9588 40.8852 33.5817 41.2888 33.279L37.4938 24.6827ZM17.637 21.0617C17.6432 21.1457 17.6432 21.2309 17.6432 21.3161C17.6442 22.1049 17.4863 22.8859 17.179 23.6124L26.4197 29.2593C26.7772 28.9175 27.2067 28.6602 27.6768 28.5063C28.1468 28.3525 28.6454 28.306 29.1357 28.3704L30.9283 24.0346C29.053 22.9925 27.6511 21.2682 27.0135 19.2198L17.637 21.0617ZM28.716 33.663C29.532 33.663 30.6802 32.784 30.6802 31.6988C30.6804 31.3099 30.5653 30.9298 30.3495 30.6064C30.1336 30.283 29.8267 30.0309 29.4675 29.882C29.1083 29.733 28.713 29.694 28.3316 29.7698C27.9503 29.8456 27.5999 30.0328 27.325 30.3078C27.05 30.5827 26.8628 30.933 26.787 31.3144C26.7112 31.6958 26.7503 32.0911 26.8992 32.4503C27.0481 32.8094 27.3002 33.1164 27.6236 33.3323C27.947 33.5481 28.3272 33.6632 28.716 33.663ZM21.537 39.3679C22.0932 39.1958 22.6721 39.1084 23.2543 39.1087C23.7176 39.1083 24.1793 39.1634 24.6296 39.2729L26.6666 34.3482C26.2606 34.036 25.9315 33.6348 25.7049 33.1755C25.4782 32.7162 25.36 32.211 25.3592 31.6988C25.36 31.3847 25.4044 31.0722 25.4913 30.7704L16.2506 25.1235C15.9138 25.5257 15.5248 25.8812 15.0938 26.1803L21.537 39.3679ZM28.3061 35.0272L26.2678 39.9519C27.0568 40.4321 27.7206 41.0926 28.2049 41.879L39.7728 37.0642C39.7365 36.8505 39.7183 36.6341 39.7185 36.4173C39.7185 36.3062 39.7246 36.1951 39.7333 36.0864L31.4444 33.4864C30.7506 34.4284 29.6148 35.0556 28.716 35.0556C28.5789 35.0549 28.442 35.0454 28.3061 35.0272ZM42.2777 38.4547C42.6808 38.7241 43.1547 38.8679 43.6395 38.8679C44.289 38.8679 44.9119 38.6101 45.3714 38.151C45.8309 37.692 46.0894 37.0693 46.0901 36.4198C46.0906 35.935 45.9472 35.4609 45.6783 35.0576C45.4093 34.6543 45.0267 34.3398 44.579 34.1539C44.1312 33.9681 43.6384 33.9192 43.1629 34.0135C42.6873 34.1077 42.2505 34.3409 41.9075 34.6836C41.5645 35.0262 41.3309 35.4629 41.2361 35.9383C41.1413 36.4137 41.1897 36.9066 41.3751 37.3545C41.5606 37.8025 41.8746 38.1854 42.2777 38.4547Z" fill="white"/>
<path fill-rule="evenodd" clip-rule="evenodd" d="M61.5432 13.2716V32.284H65.0617V13.2716H61.5432Z" fill="url(#paint1_linear_2_498)"/>
<path d="M70.6012 32.3V13.2185H80.2777V16.6482H74.1271V21.0568H80V24.4864H74.1271V32.3H70.6012Z" fill="#575756"/>
<path d="M85.0135 32.3V13.2185H90.5197C92.8185 13.2185 94.5856 13.7601 95.821 14.8432C97.0563 15.9263 97.6736 17.4045 97.6728 19.2778C97.6728 20.8416 97.1967 22.1955 96.2444 23.3395C95.2921 24.4835 94.0526 25.1239 92.5259 25.2605L97.879 32.2975H93.5444L88.5802 25.2605H88.5382V32.2975L85.0135 32.3ZM88.5382 16.6482V22.321H90.6234C91.7041 22.321 92.5617 22.093 93.1963 21.637C93.8308 21.1811 94.1481 20.4634 94.1481 19.484C94.1308 18.521 93.8094 17.8078 93.1839 17.3444C92.5584 16.8811 91.7049 16.649 90.6234 16.6482H88.5382Z" fill="#575756"/>
<path d="M101.997 32.3V13.2185H112.214V16.6482H105.523V21.0568H111.931V24.4864H105.523V28.8704H112.214V32.3H101.997Z" fill="#575756"/>
<path d="M117.437 32.3V13.2185H127.654V16.6482H120.963V21.0568H127.372V24.4864H120.963V28.8704H127.654V32.3H117.437Z" fill="#575756"/>
<path d="M132.878 32.3V13.2185H138.148C141.323 13.2185 143.819 14.0309 145.637 15.6556C147.455 17.2803 148.365 19.6823 148.365 22.8617C148.365 25.6642 147.525 27.9379 145.843 29.6827C144.162 31.4276 141.623 32.3 138.226 32.3H132.878ZM136.404 28.8704H138.132C140.293 28.8877 141.949 28.4062 143.1 27.4259C144.251 26.4457 144.834 24.923 144.849 22.858C144.849 20.7272 144.253 19.1584 143.06 18.1519C141.868 17.1453 140.165 16.6428 137.953 16.6444H136.409L136.404 28.8704Z" fill="#575756"/>
<path d="M162.035 12.8827C164.865 12.8827 167.246 13.8539 169.176 15.7963C171.107 17.7387 172.072 20.0938 172.072 22.8617C172.072 25.6296 171.102 27.972 169.163 29.8889C167.224 31.8058 164.848 32.7642 162.035 32.7642C159.204 32.7642 156.817 31.8058 154.874 29.8889C152.931 27.972 151.97 25.6296 151.993 22.8617C151.993 20.0947 152.953 17.7395 154.874 15.7963C156.795 13.8531 159.182 12.8819 162.035 12.8827ZM162.009 29.3346C163.861 29.3346 165.414 28.6942 166.667 27.4136C167.275 26.808 167.755 26.086 168.078 25.2908C168.4 24.4955 168.56 23.6434 168.546 22.7852C168.559 21.9346 168.4 21.0901 168.077 20.3031C167.754 19.5161 167.274 18.8031 166.667 18.2074C165.415 16.944 163.871 16.3124 162.035 16.3124C160.182 16.3124 158.634 16.944 157.39 18.2074C156.786 18.8048 156.309 19.5184 155.989 20.3052C155.668 21.0921 155.51 21.9357 155.525 22.7852C155.525 24.6074 156.146 26.1543 157.39 27.4259C158.634 28.6975 160.173 29.3337 162.009 29.3346Z" fill="#575756"/>
<path d="M176.626 32.3V13.2185H181.389L186.451 27.7864L191.493 13.2185H196.281V32.3H192.756V18.0136L187.941 32.3H184.956L180.141 18.0136V32.3H176.626Z" fill="#575756"/>
<path fill-rule="evenodd" clip-rule="evenodd" d="M201.296 32.284V13.2716H204.815V28.9506H210.617V32.284H204.815H201.296ZM214.568 32.284L222.469 13.2716H225.247L233.21 32.284H229.321L227.346 27.3457H220.432L218.457 32.284H214.568ZM223.827 18.4568L221.728 23.8889H225.988L223.827 18.4568ZM237.222 13.2716V32.284H241.482C247.901 32.6296 249.465 28.6008 249.445 26.5432C249.445 23.679 247.346 22.2634 246.296 21.9136C247.975 20.8765 248.313 19.0123 248.272 18.2099C248.272 14.2593 244.033 13.2716 241.914 13.2716H237.222ZM240.679 20.5556V16.6667H242.654C243.375 16.6872 244.815 17.1235 244.815 18.7037C244.815 19.321 244.358 20.5556 242.531 20.5556H240.679ZM240.679 24.0741V28.8889H243.395C244.239 28.8477 245.926 28.321 245.926 26.5432C245.885 25.7202 245.321 24.0741 243.395 24.0741H240.679Z" fill="url(#paint2_linear_2_498)"/>
<path d="M61.7914 42.6469C61.7297 42.6469 61.6556 42.6469 61.5716 42.6333C61.5087 42.628 61.4461 42.6193 61.384 42.6074H61.3655V41.7617H61.3926C61.4163 41.7661 61.4402 41.769 61.4642 41.7704H61.5186C61.5856 41.771 61.6525 41.7656 61.7186 41.7543C61.7509 41.7466 61.7813 41.7325 61.8081 41.7128C61.8348 41.693 61.8572 41.6681 61.8741 41.6395C61.9344 41.5364 61.9761 41.4236 61.9976 41.3062C62.0431 41.088 62.0733 40.8669 62.0877 40.6444C62.1124 40.3605 62.1297 39.9938 62.1433 39.5556C62.1568 39.1173 62.163 38.5679 62.163 37.9321V37.9099H64.8519V42.6012H63.8716V38.7272H63.0914C63.0914 39.2617 63.0828 39.7358 63.0679 40.1383C63.0531 40.5407 63.0272 40.8988 62.9939 41.1877C62.9683 41.4323 62.9187 41.6738 62.8457 41.9086C62.7946 42.0728 62.7106 42.2249 62.5988 42.3556C62.5047 42.4626 62.383 42.5416 62.247 42.584C62.0991 42.6274 61.9455 42.6486 61.7914 42.6469ZM61.4099 42.5679C61.4482 42.5741 61.5038 42.5815 61.5754 42.5889C61.647 42.5963 61.7321 42.6025 61.7914 42.6025C61.9438 42.6045 62.0956 42.5841 62.242 42.542C62.3701 42.5018 62.4849 42.4275 62.5741 42.3272C62.6794 42.1999 62.7583 42.0531 62.8062 41.8951C62.8782 41.663 62.927 41.4244 62.9519 41.1827C62.9852 40.8951 63.0112 40.5432 63.026 40.137C63.0408 39.7309 63.0494 39.2481 63.0494 38.7049V38.6827H63.9136V42.563H64.8149V37.9593H62.2099C62.2099 38.5914 62.2025 39.1309 62.1902 39.5642C62.1778 39.9975 62.1581 40.3704 62.1346 40.6568C62.1198 40.8809 62.0893 41.1036 62.0433 41.3235C62.0197 41.4469 61.9746 41.5651 61.9099 41.6728C61.8899 41.7061 61.8634 41.7351 61.832 41.758C61.8007 41.7809 61.765 41.7973 61.7272 41.8062C61.6582 41.8174 61.5884 41.8228 61.5186 41.8222H61.4099V42.5679Z" fill="#575756"/>
<path d="M68.984 37.937H70.1408L71.368 42.5852H70.3939L70.1791 41.5975H68.9445L68.7309 42.5852H67.7556L68.984 37.937ZM70.0173 40.8346L69.5692 38.7444H69.5556L69.1075 40.8346H70.0173Z" fill="#575756"/>
<path d="M74.2926 37.937H77.0087V38.7049H75.2284V39.7272H75.8025C76.0137 39.7249 76.2244 39.749 76.4297 39.7988C76.6004 39.8401 76.7593 39.9204 76.8939 40.0333C77.0257 40.1507 77.1251 40.2999 77.1828 40.4667C77.2556 40.679 77.2899 40.9027 77.284 41.1272C77.2896 41.3562 77.2545 41.5845 77.1803 41.8012C77.1174 41.975 77.0122 42.1303 76.8741 42.2531C76.7332 42.3741 76.5664 42.4612 76.3865 42.5074C76.1723 42.5622 75.9519 42.5884 75.7309 42.5852H74.2926V37.937ZM75.5556 41.8691C75.6712 41.8708 75.7867 41.86 75.9 41.837C75.9884 41.8171 76.0701 41.7746 76.1371 41.7136C76.2037 41.6517 76.252 41.5727 76.2766 41.4852C76.3105 41.3648 76.3259 41.2399 76.3223 41.1148C76.3223 40.849 76.2605 40.67 76.1371 40.5778C75.9718 40.4724 75.777 40.4231 75.5815 40.437H75.2247V41.863L75.5556 41.8691Z" fill="#575756"/>
<path d="M81.947 42.6568C81.6575 42.6704 81.3692 42.6109 81.1087 42.484C80.9029 42.3718 80.7362 42.1995 80.6309 41.9901C80.5124 41.754 80.4395 41.4977 80.4161 41.2346C80.3519 40.5851 80.3519 39.9309 80.4161 39.2815C80.4392 39.0155 80.5121 38.7563 80.6309 38.5173C80.7383 38.3094 80.9044 38.1376 81.1087 38.0235C81.3724 37.9054 81.658 37.8444 81.947 37.8444C82.2359 37.8444 82.5215 37.9054 82.7852 38.0235C82.989 38.1383 83.1549 38.3099 83.263 38.5173C83.3808 38.7566 83.4533 39.0157 83.4766 39.2815C83.5424 39.9308 83.5424 40.5852 83.4766 41.2346C83.453 41.4975 83.3806 41.7537 83.263 41.9901C83.1569 42.199 82.9905 42.371 82.7852 42.484C82.5247 42.6109 82.2365 42.6704 81.947 42.6568ZM81.947 41.9864C82.0657 41.9923 82.1831 41.9593 82.2815 41.8926C82.3756 41.8148 82.4437 41.7101 82.4766 41.5926C82.5279 41.4191 82.5581 41.24 82.5667 41.0593C82.5823 40.8395 82.5902 40.5737 82.5902 40.2617C82.5902 39.9498 82.5823 39.6848 82.5667 39.4667C82.5578 39.286 82.5275 39.1069 82.4766 38.9333C82.4443 38.8148 82.3762 38.7091 82.2815 38.6309C82.181 38.5687 82.0652 38.5357 81.947 38.5357C81.8288 38.5357 81.7129 38.5687 81.6124 38.6309C81.5173 38.7088 81.4491 38.8146 81.4173 38.9333C81.3653 39.1067 81.3346 39.2858 81.326 39.4667C81.3112 39.684 81.3037 39.949 81.3037 40.2617C81.3037 40.5745 81.3112 40.8403 81.326 41.0593C81.3343 41.2401 81.365 41.4193 81.4173 41.5926C81.4497 41.7104 81.5179 41.8152 81.6124 41.8926C81.7106 41.9597 81.8282 41.9926 81.947 41.9864Z" fill="#575756"/>
<path d="M86.6766 37.937H88.3136C88.5209 37.9314 88.7266 37.9737 88.9149 38.0605C89.0687 38.1336 89.2035 38.2413 89.3087 38.3753C89.4087 38.5082 89.4813 38.6597 89.5223 38.821C89.5656 38.9883 89.5876 39.1605 89.5877 39.3333C89.5927 39.5474 89.5562 39.7603 89.4803 39.9605C89.4164 40.1265 89.314 40.275 89.1815 40.3938C89.0467 40.5107 88.8884 40.5974 88.7173 40.6481C88.5209 40.7059 88.3171 40.7342 88.1124 40.7321H87.6124V42.5839H86.6766V37.937ZM88.0284 40.0358C88.1113 40.0394 88.1939 40.0263 88.2716 39.9972C88.3492 39.9682 88.4202 39.9238 88.4803 39.8667C88.5427 39.7948 88.5901 39.7111 88.6196 39.6205C88.6491 39.5299 88.6601 39.4344 88.6519 39.3395C88.6655 39.1498 88.6127 38.9612 88.5025 38.8062C88.4025 38.6827 88.2358 38.6235 88.0087 38.6235H87.6186V40.0358H88.0284Z" fill="#575756"/>
<path d="M93.5507 37.937H94.7075L95.942 42.5852H94.9667L94.7531 41.5975H93.5186L93.3038 42.5852H92.3297L93.5507 37.937ZM94.584 40.8346L94.1358 38.7444H94.1235L93.6741 40.8346H94.584Z" fill="#575756"/>
<path d="M99.6297 38.7049H98.6161V37.937H101.579V38.7049H100.565V42.5852H99.6297V38.7049Z" fill="#575756"/>
<path d="M106.059 42.6568C105.77 42.6704 105.482 42.6109 105.221 42.484C105.015 42.3718 104.849 42.1995 104.743 41.9901C104.625 41.7538 104.552 41.4976 104.528 41.2346C104.464 40.5851 104.464 39.9309 104.528 39.2815C104.552 39.0157 104.625 38.7565 104.743 38.5173C104.851 38.3094 105.017 38.1376 105.221 38.0235C105.485 37.9054 105.77 37.8444 106.059 37.8444C106.348 37.8444 106.634 37.9054 106.898 38.0235C107.101 38.1383 107.267 38.3099 107.375 38.5173C107.493 38.7566 107.566 39.0157 107.589 39.2815C107.655 39.9308 107.655 40.5852 107.589 41.2346C107.565 41.4975 107.493 41.7537 107.375 41.9901C107.269 42.199 107.103 42.371 106.898 42.484C106.637 42.6109 106.349 42.6704 106.059 42.6568ZM106.059 41.9864C106.178 41.9923 106.295 41.9593 106.394 41.8926C106.488 41.8148 106.556 41.7101 106.589 41.5926C106.641 41.4192 106.671 41.2401 106.679 41.0593C106.696 40.8395 106.703 40.5737 106.703 40.2617C106.702 39.9498 106.694 39.6848 106.679 39.4667C106.671 39.2859 106.64 39.1068 106.589 38.9333C106.557 38.8148 106.489 38.7091 106.394 38.6309C106.293 38.5687 106.177 38.5357 106.059 38.5357C105.941 38.5357 105.825 38.5687 105.725 38.6309C105.63 38.7088 105.561 38.8146 105.53 38.9333C105.478 39.1067 105.447 39.2858 105.438 39.4667C105.424 39.684 105.416 39.949 105.416 40.2617C105.416 40.5745 105.424 40.8403 105.438 41.0593C105.447 41.2401 105.477 41.4193 105.53 41.5926C105.562 41.7104 105.63 41.8152 105.725 41.8926C105.823 41.9597 105.941 41.9926 106.059 41.9864Z" fill="#575756"/>
<path d="M110.789 37.937H112.427C112.634 37.9314 112.839 37.9736 113.027 38.0605C113.181 38.1336 113.316 38.2413 113.421 38.3753C113.522 38.5079 113.595 38.6595 113.636 38.821C113.679 38.9884 113.7 39.1605 113.7 39.3333C113.705 39.5474 113.669 39.7603 113.593 39.9605C113.529 40.1268 113.427 40.2754 113.294 40.3938C113.159 40.5109 113.001 40.5977 112.83 40.6481C112.633 40.706 112.429 40.7343 112.225 40.7321H111.731V42.5839H110.795L110.789 37.937ZM112.141 40.0358C112.223 40.0407 112.305 40.0291 112.383 40.0018C112.46 39.9744 112.532 39.9319 112.593 39.8765C112.655 39.8046 112.702 39.7209 112.732 39.6304C112.761 39.5398 112.772 39.4443 112.764 39.3494C112.778 39.1597 112.725 38.9711 112.615 38.816C112.516 38.6926 112.348 38.6333 112.121 38.6333H111.728V40.0457L112.141 40.0358Z" fill="#575756"/>
<path d="M116.761 37.937H117.654V40.9185L118.791 37.937H119.799V42.5852H118.909V39.6099L117.772 42.5852H116.764L116.761 37.937Z" fill="#575756"/>
<path d="M123.712 40.684C123.47 40.5997 123.262 40.4373 123.122 40.2222C122.967 39.9616 122.892 39.661 122.907 39.358C122.902 39.1375 122.937 38.9178 123.011 38.7099C123.073 38.5411 123.174 38.3896 123.306 38.2679C123.44 38.149 123.599 38.062 123.772 38.0136C123.968 37.9572 124.171 37.9298 124.375 37.9321H125.903V42.5803H124.973V40.7901H124.636L123.752 42.5803H122.716L123.712 40.684ZM124.98 40.1049V38.6235H124.61C124.406 38.6059 124.203 38.6649 124.041 38.7889C123.922 38.9 123.863 39.0901 123.863 39.3593C123.863 39.6407 123.921 39.8358 124.038 39.942C124.194 40.0608 124.389 40.1176 124.584 40.1012L124.98 40.1049Z" fill="#575756"/>
<path d="M134.791 42.6568C134.502 42.6704 134.214 42.6109 133.953 42.4839C133.748 42.371 133.581 42.199 133.475 41.9901C133.358 41.7536 133.285 41.4975 133.261 41.2346C133.196 40.5851 133.196 39.9309 133.261 39.2815C133.285 39.0158 133.358 38.7567 133.475 38.5173C133.583 38.3099 133.749 38.1383 133.953 38.0235C134.213 37.8927 134.501 37.8311 134.791 37.8444C135.064 37.8308 135.335 37.8869 135.58 38.0074C135.759 38.1032 135.909 38.2462 136.012 38.421C136.108 38.5874 136.169 38.7713 136.191 38.9617C136.214 39.1419 136.226 39.3233 136.227 39.5049H135.291C135.306 39.2519 135.264 38.9988 135.168 38.7642C135.125 38.6872 135.061 38.6244 134.983 38.5834C134.905 38.5423 134.817 38.525 134.73 38.5333C134.625 38.5294 134.522 38.5632 134.44 38.6284C134.352 38.7109 134.291 38.8167 134.262 38.9333C134.211 39.1142 134.18 39.3001 134.17 39.4877C134.153 39.7148 134.144 39.9934 134.144 40.3235C134.142 40.6082 134.154 40.893 134.18 41.1765C134.194 41.3491 134.231 41.5189 134.29 41.6815C134.323 41.7832 134.389 41.8705 134.479 41.9284C134.56 41.9707 134.651 41.992 134.742 41.9901C134.821 41.991 134.899 41.9768 134.973 41.9482C135.051 41.9135 135.116 41.8541 135.158 41.779C135.219 41.6674 135.261 41.5464 135.282 41.421C135.315 41.2199 135.331 41.0162 135.327 40.8123H136.263C136.264 41.0531 136.244 41.2935 136.204 41.5309C136.171 41.7389 136.097 41.9383 135.986 42.1173C135.876 42.2878 135.721 42.4252 135.538 42.5148C135.304 42.6191 135.048 42.6677 134.791 42.6568Z" fill="#575756"/>
<path d="M139.398 37.937H140.964C141.142 37.9359 141.32 37.9554 141.494 37.9951C141.646 38.0299 141.788 38.0969 141.912 38.1914C142.034 38.2868 142.128 38.4124 142.185 38.5556C142.255 38.7335 142.288 38.9237 142.283 39.1148C142.289 39.3434 142.228 39.5689 142.107 39.763C141.985 39.9481 141.797 40.0803 141.582 40.1333V40.1469C141.823 40.1714 142.045 40.2909 142.199 40.479C142.359 40.6944 142.439 40.959 142.426 41.2272C142.427 41.4033 142.403 41.5788 142.354 41.7481C142.307 41.91 142.223 42.0585 142.107 42.1815C141.982 42.3124 141.828 42.4137 141.658 42.4778C141.439 42.5568 141.206 42.5941 140.973 42.5877H139.394L139.398 37.937ZM140.6 39.8444C140.8 39.8602 140.999 39.8113 141.169 39.7049C141.233 39.6452 141.283 39.5714 141.314 39.4894C141.344 39.4073 141.356 39.3193 141.347 39.2321C141.347 39.0111 141.293 38.8543 141.185 38.7642C141.035 38.6607 140.854 38.6123 140.672 38.6272H140.333V39.8444H140.6ZM140.698 41.8951C140.891 41.9043 141.082 41.852 141.243 41.7457C141.382 41.6461 141.451 41.4617 141.451 41.1926C141.454 41.0782 141.435 40.9643 141.396 40.8568C141.364 40.7744 141.313 40.7009 141.247 40.642C141.182 40.5866 141.105 40.5477 141.022 40.5284C140.93 40.5053 140.836 40.4936 140.741 40.4938H140.337V41.8938L140.698 41.8951Z" fill="#575756"/>
<path d="M147.091 42.6568C146.802 42.6704 146.514 42.6109 146.253 42.484C146.048 42.3714 145.881 42.1992 145.775 41.9901C145.658 41.7536 145.585 41.4975 145.561 41.2346C145.496 40.5851 145.496 39.9309 145.561 39.2815C145.585 39.0158 145.658 38.7567 145.775 38.5173C145.883 38.3096 146.049 38.138 146.253 38.0235C146.517 37.9054 146.802 37.8444 147.091 37.8444C147.38 37.8444 147.666 37.9054 147.93 38.0235C148.133 38.1383 148.299 38.3099 148.407 38.5173C148.525 38.7566 148.598 39.0157 148.621 39.2815C148.687 39.9308 148.687 40.5852 148.621 41.2346C148.597 41.4975 148.525 41.7537 148.407 41.9901C148.301 42.199 148.135 42.371 147.93 42.484C147.669 42.6109 147.381 42.6704 147.091 42.6568ZM147.091 41.9864C147.21 41.9923 147.328 41.9593 147.426 41.8926C147.52 41.8148 147.588 41.7101 147.621 41.5926C147.673 41.4192 147.703 41.2401 147.711 41.0593C147.727 40.8395 147.735 40.5737 147.735 40.2617C147.735 39.9498 147.727 39.6848 147.711 39.4667C147.703 39.2859 147.673 39.1068 147.621 38.9333C147.589 38.8148 147.521 38.7091 147.426 38.6309C147.325 38.5687 147.21 38.5357 147.091 38.5357C146.973 38.5357 146.857 38.5687 146.757 38.6309C146.662 38.7088 146.594 38.8146 146.562 38.9333C146.51 39.1067 146.479 39.2858 146.47 39.4667C146.456 39.684 146.448 39.949 146.448 40.2617C146.448 40.5745 146.456 40.8403 146.47 41.0593C146.479 41.2401 146.509 41.4193 146.562 41.5926C146.594 41.7104 146.662 41.8152 146.757 41.8926C146.855 41.9597 146.973 41.9926 147.091 41.9864Z" fill="#575756"/>
<path d="M151.821 37.937H154.537V38.7049H152.763V39.7272H153.333C153.545 39.7249 153.755 39.7489 153.961 39.7988C154.131 39.8398 154.29 39.9201 154.425 40.0333C154.557 40.1509 154.656 40.3 154.715 40.4667C154.787 40.6793 154.821 40.9028 154.815 41.1272C154.82 41.3562 154.785 41.5845 154.711 41.8012C154.649 41.9748 154.544 42.1301 154.406 42.2531C154.263 42.3747 154.094 42.4617 153.912 42.5074C153.698 42.5622 153.477 42.5883 153.256 42.5852H151.82L151.821 37.937ZM153.086 41.8691C153.202 41.8707 153.318 41.8599 153.431 41.837C153.519 41.8171 153.601 41.7746 153.668 41.7136C153.734 41.651 153.782 41.5723 153.807 41.4852C153.841 41.3647 153.856 41.2399 153.853 41.1148C153.853 40.849 153.791 40.67 153.668 40.5778C153.503 40.4724 153.308 40.4231 153.112 40.437H152.754V41.863L153.086 41.8691Z" fill="#575756"/>
<path d="M159.475 42.6568C159.186 42.6704 158.898 42.6109 158.637 42.484C158.432 42.371 158.265 42.199 158.159 41.9901C158.042 41.7537 157.969 41.4975 157.946 41.2346C157.88 40.5852 157.88 39.9308 157.946 39.2815C157.969 39.0157 158.041 38.7566 158.159 38.5173C158.267 38.3099 158.433 38.1383 158.637 38.0235C158.901 37.9054 159.186 37.8444 159.475 37.8444C159.764 37.8444 160.05 37.9054 160.314 38.0235C160.517 38.1383 160.683 38.3099 160.791 38.5173C160.909 38.7567 160.982 39.0158 161.006 39.2815C161.07 39.9309 161.07 40.5851 161.006 41.2346C160.982 41.4975 160.909 41.7536 160.791 41.9901C160.685 42.199 160.519 42.371 160.314 42.484C160.053 42.6109 159.765 42.6704 159.475 42.6568ZM159.475 41.9864C159.594 41.9924 159.712 41.9595 159.81 41.8926C159.904 41.8152 159.973 41.7104 160.005 41.5926C160.057 41.4191 160.087 41.2401 160.096 41.0593C160.111 40.8395 160.119 40.5737 160.119 40.2617C160.119 39.9498 160.111 39.6848 160.096 39.4667C160.087 39.2859 160.056 39.1069 160.005 38.9333C159.973 38.8146 159.905 38.7088 159.81 38.6309C159.709 38.5687 159.594 38.5357 159.475 38.5357C159.357 38.5357 159.241 38.5687 159.141 38.6309C159.046 38.7091 158.978 38.8148 158.946 38.9333C158.894 39.1069 158.864 39.2859 158.854 39.4667C158.84 39.684 158.832 39.949 158.832 40.2617C158.832 40.5745 158.84 40.8403 158.854 41.0593C158.863 41.2401 158.894 41.4191 158.946 41.5926C158.979 41.7101 159.047 41.8148 159.141 41.8926C159.239 41.9595 159.357 41.9924 159.475 41.9864Z" fill="#575756"/>
<path d="M163.88 41.8173H164.251C164.361 41.6104 164.451 41.3934 164.52 41.1691C164.583 40.9573 164.629 40.7405 164.656 40.521C164.685 40.2932 164.702 40.0641 164.707 39.8346C164.715 39.5988 164.717 39.3407 164.717 39.0704V37.937H167.407V41.8173H167.843V43.5037H166.979V42.5852H164.749V43.5037H163.885L163.88 41.8173ZM166.486 41.8173V38.7049H165.609V39.4605C165.609 39.6432 165.609 39.8383 165.593 40.0469C165.577 40.2556 165.564 40.463 165.537 40.6716C165.512 40.8762 165.477 41.0793 165.431 41.2802C165.389 41.4641 165.332 41.6438 165.258 41.8173H166.486Z" fill="#575756"/>
<path d="M170.827 37.937H171.762V39.7148H172.854V37.937H173.79V42.5852H172.854V40.521H171.762V42.5852H170.827V37.937Z" fill="#575756"/>
<path d="M178.519 42.6568C178.229 42.6704 177.941 42.6109 177.68 42.484C177.475 42.371 177.309 42.199 177.203 41.9901C177.085 41.7537 177.013 41.4975 176.989 41.2346C176.923 40.5852 176.923 39.9308 176.989 39.2815C177.012 39.0157 177.085 38.7566 177.203 38.5173C177.311 38.3099 177.477 38.1383 177.68 38.0235C177.944 37.9054 178.23 37.8444 178.519 37.8444C178.807 37.8444 179.093 37.9054 179.357 38.0235C179.561 38.1383 179.727 38.3099 179.835 38.5173C179.952 38.7567 180.025 39.0158 180.049 39.2815C180.114 39.9309 180.114 40.5851 180.049 41.2346C180.025 41.4975 179.952 41.7536 179.835 41.9901C179.729 42.199 179.562 42.371 179.357 42.484C179.096 42.6109 178.808 42.6704 178.519 42.6568ZM178.519 41.9864C178.637 41.9924 178.755 41.9595 178.853 41.8926C178.948 41.8152 179.016 41.7104 179.048 41.5926C179.1 41.4191 179.131 41.2401 179.14 41.0593C179.154 40.8395 179.162 40.5737 179.162 40.2617C179.162 39.9498 179.154 39.6848 179.14 39.4667C179.13 39.2859 179.1 39.1069 179.048 38.9333C179.016 38.8146 178.948 38.7088 178.853 38.6309C178.753 38.5687 178.637 38.5357 178.519 38.5357C178.4 38.5357 178.285 38.5687 178.184 38.6309C178.089 38.7091 178.021 38.8148 177.989 38.9333C177.938 39.1069 177.907 39.2859 177.898 39.4667C177.883 39.684 177.875 39.949 177.875 40.2617C177.875 40.5745 177.883 40.8403 177.898 41.0593C177.907 41.2401 177.937 41.4191 177.989 41.5926C178.022 41.7101 178.09 41.8148 178.184 41.8926C178.282 41.9593 178.4 41.9923 178.519 41.9864Z" fill="#575756"/>
<path d="M183.275 37.937H185.752V38.7049H184.211V42.5852H183.275V37.937Z" fill="#575756"/>
<path d="M190.215 42.6568C189.925 42.6704 189.637 42.6109 189.377 42.484C189.171 42.3713 189.005 42.1991 188.9 41.9901C188.782 41.754 188.709 41.4977 188.685 41.2346C188.621 40.5851 188.621 39.9309 188.685 39.2815C188.708 39.0155 188.781 38.7563 188.9 38.5173C189.007 38.3097 189.173 38.1381 189.377 38.0235C189.64 37.9054 189.926 37.8444 190.215 37.8444C190.504 37.8444 190.789 37.9054 191.053 38.0235C191.257 38.1376 191.424 38.3094 191.531 38.5173C191.65 38.7563 191.723 39.0155 191.746 39.2815C191.81 39.9309 191.81 40.5851 191.746 41.2346C191.722 41.4977 191.649 41.754 191.531 41.9901C191.426 42.1995 191.259 42.3718 191.053 42.484C190.793 42.6113 190.504 42.6708 190.215 42.6568ZM190.215 41.9864C190.334 41.9924 190.452 41.9595 190.551 41.8926C190.645 41.8151 190.712 41.7103 190.744 41.5926C190.797 41.4193 190.828 41.2401 190.836 41.0593C190.851 40.8395 190.858 40.5737 190.858 40.2617C190.858 39.9498 190.851 39.6848 190.836 39.4667C190.827 39.2858 190.797 39.1067 190.744 38.9333C190.713 38.8147 190.645 38.7089 190.551 38.6309C190.45 38.5687 190.334 38.5358 190.215 38.5358C190.097 38.5358 189.981 38.5687 189.88 38.6309C189.786 38.7089 189.718 38.8147 189.686 38.9333C189.634 39.1067 189.604 39.2858 189.595 39.4667C189.579 39.684 189.571 39.949 189.572 40.2617C189.572 40.5745 189.58 40.8403 189.595 41.0593C189.603 41.2401 189.634 41.4193 189.686 41.5926C189.718 41.7103 189.786 41.8151 189.88 41.8926C189.979 41.9593 190.096 41.9923 190.215 41.9864Z" fill="#575756"/>
<path d="M199.104 37.937H200V40.9185L201.137 37.937H202.144V42.5852H201.254V39.6099L200.117 42.5852H199.11L199.104 37.937Z" fill="#575756"/>
<path d="M205.388 37.937H206.322V39.7148H207.415V37.937H208.349V42.5852H207.415V40.521H206.322V42.5852H205.388V37.937Z" fill="#575756"/>
<path d="M212.365 38.7049H211.358V37.937H214.321V38.7049H213.307V42.5852H212.372L212.365 38.7049Z" fill="#575756"/>
<path d="M217.317 37.937H219.91V38.7049H218.252V39.7988H219.812V40.5679H218.252V41.8173H219.98V42.5852H217.324L217.317 37.937Z" fill="#575756"/>
<path d="M223.041 37.937H224.679C224.886 37.9314 225.091 37.9736 225.279 38.0605C225.433 38.1336 225.568 38.2413 225.673 38.3753C225.773 38.5085 225.846 38.6599 225.888 38.821C225.931 38.9884 225.952 39.1605 225.952 39.3333C225.957 39.5474 225.92 39.7603 225.844 39.9605C225.781 40.1265 225.678 40.275 225.546 40.3938C225.411 40.5109 225.253 40.5977 225.082 40.6481C224.885 40.706 224.681 40.7343 224.477 40.7321H223.977V42.5839H223.041V37.937ZM224.393 40.0358C224.475 40.0394 224.558 40.0263 224.636 39.9972C224.713 39.9682 224.784 39.9237 224.844 39.8667C224.907 39.7948 224.954 39.711 224.984 39.6205C225.013 39.5299 225.024 39.4344 225.016 39.3395C225.03 39.1498 224.977 38.9612 224.867 38.8062C224.768 38.6827 224.6 38.6235 224.367 38.6235H223.977V40.0358H224.393Z" fill="#575756"/>
<path d="M229.012 37.937H229.948V39.7148H231.04V37.937H231.975V42.5852H231.04V40.521H229.948V42.5852H229.012V37.937Z" fill="#575756"/>
<path d="M235.224 37.937H237.816V38.7049H236.159V39.7988H237.719V40.5679H236.159V41.8173H237.888V42.5852H235.23L235.224 37.937Z" fill="#575756"/>
<path d="M241.715 38.7049H240.701V37.937H243.664V38.7049H242.651V42.5852H241.715V38.7049Z" fill="#575756"/>
<path d="M247.569 37.937H248.726L249.961 42.5852H248.985L248.772 41.5975H247.537L247.322 42.5852H246.347L247.569 37.937ZM248.603 40.8346L248.154 38.7444H248.141L247.693 40.8346H248.603Z" fill="#575756"/>
<path d="M61.4099 42.5679C61.4482 42.5741 61.5038 42.5815 61.5754 42.5889C61.647 42.5963 61.7321 42.6025 61.7914 42.6025C61.9438 42.6045 62.0956 42.5841 62.242 42.542C62.3701 42.5018 62.4849 42.4275 62.5741 42.3272C62.6794 42.1999 62.7583 42.0531 62.8062 41.8951C62.8782 41.663 62.927 41.4244 62.9519 41.1827C62.9852 40.8951 63.0112 40.5432 63.026 40.137C63.0408 39.7309 63.0494 39.2481 63.0494 38.7049V38.6827H63.9136V42.563H64.8149V37.9593H62.2099C62.2099 38.5914 62.2025 39.1309 62.1902 39.5642C62.1778 39.9975 62.1581 40.3704 62.1346 40.6568C62.1198 40.8809 62.0893 41.1036 62.0433 41.3235C62.0197 41.4469 61.9746 41.5651 61.9099 41.6728C61.8899 41.7061 61.8634 41.7351 61.832 41.758C61.8007 41.7809 61.765 41.7973 61.7272 41.8062C61.6582 41.8174 61.5884 41.8228 61.5186 41.8222H61.4099V42.5679Z" fill="#575756"/>
</g>
<defs>
<linearGradient id="paint0_linear_2_498" x1="44.2044" y1="49.7909" x2="12.693" y2="2.21943" gradientUnits="userSpaceOnUse">
<stop stop-color="#312782"/>
<stop offset="0.04" stop-color="#3A2582"/>
<stop offset="0.51" stop-color="#951180"/>
<stop offset="0.84" stop-color="#CF057E"/>
<stop offset="1" stop-color="#E5007E"/>
</linearGradient>
<linearGradient id="paint1_linear_2_498" x1="56.2988" y1="-2.68642" x2="68.2803" y2="45.3691" gradientUnits="userSpaceOnUse">
<stop offset="0.32" stop-color="#E5007E"/>
<stop offset="0.47" stop-color="#C1087F"/>
<stop offset="0.81" stop-color="#661B81"/>
<stop offset="1" stop-color="#312782"/>
</linearGradient>
<linearGradient id="paint2_linear_2_498" x1="217.396" y1="-35.337" x2="233.493" y2="55.9482" gradientUnits="userSpaceOnUse">
<stop offset="0.45" stop-color="#E5007E"/>
<stop offset="0.49" stop-color="#DE027E"/>
<stop offset="0.55" stop-color="#CB067F"/>
<stop offset="0.62" stop-color="#AB0D7F"/>
<stop offset="0.69" stop-color="#7E1680"/>
<stop offset="0.77" stop-color="#462282"/>
<stop offset="0.8" stop-color="#312782"/>
</linearGradient>
<clipPath id="clip0_2_498">
<rect width="250" height="55.9259" fill="white"/>
</clipPath>
</defs>
</svg>
